<svg width="127" height="28" viewBox="0 0 127 28" fill="none" xmlns="http://www.w3.org/2000/svg">
<path d="M37.1489 18.687C37.1489 19.2983 37.0234 19.7679 36.7725 20.096C36.5281 20.4242 36.1195 20.5882 35.5469 20.5882C35.0064 20.5882 34.6236 20.4242 34.3984 20.096C34.1797 19.7679 34.0703 19.2983 34.0703 18.687V8.48623C34.0703 7.87501 34.1797 7.40534 34.3984 7.07721C34.6236 6.74909 35.0064 6.58502 35.5469 6.58502C36.1195 6.58502 36.5281 6.74909 36.7725 7.07721C37.0234 7.40534 37.1489 7.87501 37.1489 8.48623V18.687Z" fill="#8B888A"/>
<path d="M38.0835 15.7243C38.0835 15.0422 38.1928 14.3989 38.4116 13.7941C38.6368 13.1829 38.9713 12.6489 39.4153 12.1921C39.8656 11.7353 40.4254 11.3718 41.0945 11.1016C41.7701 10.8313 42.5614 10.6962 43.4686 10.6962C44.3372 10.6962 45.106 10.8217 45.7751 11.0726C46.4442 11.3235 47.0072 11.6742 47.4639 12.1246C47.9208 12.5684 48.2682 13.0992 48.5063 13.7169C48.7443 14.3281 48.8634 14.9972 48.8634 15.7243C48.8634 16.3998 48.7507 17.04 48.5256 17.6448C48.3004 18.2431 47.9626 18.7707 47.5122 19.2275C47.0619 19.6778 46.4989 20.0381 45.8234 20.3084C45.1478 20.5722 44.3629 20.704 43.4686 20.704C42.5872 20.704 41.8087 20.5786 41.1331 20.3277C40.4639 20.0703 39.9011 19.7196 39.4442 19.2757C38.9939 18.8254 38.6528 18.2978 38.4213 17.693C38.196 17.0818 38.0835 16.4255 38.0835 15.7243ZM41.2972 15.7243C41.2972 16.1489 41.3357 16.5542 41.413 16.9402C41.4901 17.3198 41.6124 17.6544 41.7797 17.9439C41.9534 18.2334 42.1786 18.4651 42.4552 18.6388C42.7319 18.806 43.0697 18.8897 43.4686 18.8897C43.8353 18.8897 44.1538 18.8125 44.424 18.658C44.7007 18.5037 44.9258 18.2881 45.0996 18.0115C45.2797 17.7349 45.4148 17.4035 45.5049 17.0175C45.5949 16.625 45.64 16.1939 45.64 15.7243C45.64 15.2996 45.5982 14.8975 45.5146 14.5179C45.4373 14.1319 45.3119 13.7941 45.1381 13.5045C44.9645 13.2087 44.7393 12.977 44.4626 12.8097C44.1924 12.6361 43.861 12.5492 43.4686 12.5492C43.0761 12.5492 42.7416 12.6328 42.4649 12.8001C42.1882 12.9674 41.9631 13.1957 41.7893 13.4853C41.6157 13.7748 41.4901 14.1126 41.413 14.4986C41.3357 14.8846 41.2972 15.2932 41.2972 15.7243Z" fill="#8B888A"/>
<path d="M56.7851 18.7257C56.6113 19.0473 56.399 19.3207 56.1481 19.546C55.9037 19.7711 55.6302 19.9577 55.3278 20.1057C55.0319 20.2472 54.7134 20.3534 54.3724 20.4242C54.0378 20.4885 53.6936 20.5207 53.3398 20.5207C52.7478 20.5207 52.2074 20.4146 51.7184 20.2022C51.2295 19.9899 50.8081 19.6842 50.4542 19.2854C50.1067 18.8801 49.8365 18.3846 49.6435 17.7992C49.4505 17.2137 49.354 16.5445 49.354 15.7918C49.354 15.0841 49.4441 14.4214 49.6242 13.8038C49.8043 13.1861 50.0649 12.6489 50.4059 12.1921C50.7534 11.7353 51.178 11.375 51.6799 11.1112C52.1816 10.8474 52.7543 10.7155 53.3976 10.7155C54.1311 10.7155 54.7809 10.8571 55.3471 11.1401C55.9197 11.4233 56.4119 11.8865 56.8237 12.5298V12.279C56.8237 11.8158 56.9491 11.4683 57.2001 11.2366C57.4574 10.9986 57.8113 10.8796 58.2617 10.8796C58.5319 10.8796 58.7602 10.9246 58.9468 11.0147C59.1334 11.0984 59.2814 11.227 59.3907 11.4008C59.5002 11.568 59.5773 11.7771 59.6224 12.0281C59.6738 12.2725 59.6995 12.5524 59.6995 12.8676V19.3337C59.6995 20.1186 59.5999 20.8198 59.4004 21.4375C59.2074 22.0551 58.905 22.5763 58.4932 23.0009C58.0815 23.4255 57.5539 23.7472 56.9105 23.966C56.2672 24.1912 55.5015 24.3038 54.6137 24.3038C53.9896 24.3038 53.4363 24.2748 52.9537 24.2169C52.4776 24.1655 52.0658 24.085 51.7184 23.9757C51.371 23.8534 51.1073 23.7183 50.9271 23.5703C50.7534 23.4223 50.6665 23.2293 50.6665 22.9913C50.6665 22.8562 50.6858 22.7275 50.7244 22.6052C50.763 22.483 50.8209 22.3736 50.8981 22.2771C50.9817 22.187 51.0879 22.1131 51.2166 22.0551C51.3517 22.0037 51.5157 21.9779 51.7088 21.9779C51.9146 21.9779 52.1205 21.9908 52.3264 22.0166C52.5387 22.0423 52.7575 22.068 52.9827 22.0937C53.2143 22.1259 53.4555 22.1548 53.7065 22.1806C53.9638 22.2063 54.2405 22.2192 54.5364 22.2192C54.8903 22.2192 55.2055 22.1838 55.4823 22.1131C55.7589 22.0423 55.9937 21.9168 56.1867 21.7366C56.3797 21.5565 56.5277 21.3152 56.6307 21.0128C56.7336 20.7169 56.7851 20.3373 56.7851 19.8741V18.7257ZM56.7851 15.7243C56.7851 15.2546 56.7497 14.8267 56.6789 14.4408C56.6146 14.0547 56.5019 13.7266 56.3411 13.4563C56.1803 13.1797 55.9648 12.9674 55.6946 12.8194C55.4243 12.665 55.0865 12.5878 54.6812 12.5878C54.2823 12.5878 53.951 12.6682 53.6872 12.829C53.4299 12.9899 53.224 13.2119 53.0696 13.4949C52.9151 13.7781 52.8058 14.1094 52.7414 14.489C52.6835 14.8686 52.6546 15.2739 52.6546 15.705C52.6546 16.6893 52.8283 17.4293 53.1757 17.9246C53.5231 18.42 54.0281 18.6678 54.6908 18.6678C54.9997 18.6613 55.2796 18.6034 55.5304 18.494C55.7878 18.3782 56.0098 18.2013 56.1963 17.9632C56.3829 17.7252 56.5277 17.4228 56.6307 17.056C56.7336 16.6893 56.7851 16.2454 56.7851 15.7243Z" fill="#8B888A"/>
<path d="M60.5859 15.7243C60.5859 15.0422 60.6953 14.3989 60.914 13.7941C61.1392 13.1829 61.4737 12.6489 61.9177 12.1921C62.3681 11.7353 62.9278 11.3718 63.5969 11.1016C64.2725 10.8313 65.0638 10.6962 65.971 10.6962C66.8395 10.6962 67.6084 10.8217 68.2775 11.0726C68.9466 11.3235 69.5096 11.6742 69.9664 12.1246C70.4232 12.5684 70.7707 13.0992 71.0087 13.7169C71.2467 14.3281 71.3657 14.9972 71.3657 15.7243C71.3657 16.3998 71.2532 17.04 71.028 17.6448C70.8028 18.2431 70.465 18.7707 70.0147 19.2275C69.5643 19.6778 69.0013 20.0381 68.3258 20.3084C67.6502 20.5722 66.8653 20.704 65.971 20.704C65.0895 20.704 64.3111 20.5786 63.6355 20.3277C62.9664 20.0703 62.4034 19.7196 61.9466 19.2757C61.4963 18.8254 61.1553 18.2978 60.9236 17.693C60.6985 17.0818 60.5859 16.4255 60.5859 15.7243ZM63.7996 15.7243C63.7996 16.1489 63.8382 16.5542 63.9154 16.9402C63.9926 17.3198 64.1148 17.6544 64.2822 17.9439C64.4558 18.2334 64.681 18.4651 64.9577 18.6388C65.2343 18.806 65.5721 18.8897 65.971 18.8897C66.3378 18.8897 66.6562 18.8125 66.9264 18.658C67.203 18.5037 67.4283 18.2881 67.602 18.0115C67.7821 17.7349 67.9172 17.4035 68.0073 17.0175C68.0974 16.625 68.1424 16.1939 68.1424 15.7243C68.1424 15.2996 68.1006 14.8975 68.0169 14.5179C67.9398 14.1319 67.8143 13.7941 67.6406 13.5045C67.4669 13.2087 67.2417 12.977 66.965 12.8097C66.6948 12.6361 66.3635 12.5492 65.971 12.5492C65.5785 12.5492 65.244 12.6328 64.9673 12.8001C64.6907 12.9674 64.4655 13.1957 64.2918 13.4853C64.1181 13.7748 63.9926 14.1126 63.9154 14.4986C63.8382 14.8846 63.7996 15.2932 63.7996 15.7243Z" fill="#8B888A"/>
<path d="M75.5044 7.44395C75.5044 7.65628 75.4561 7.84607 75.3596 8.01335C75.2631 8.17419 75.1377 8.30927 74.9832 8.41872C74.8288 8.52808 74.6486 8.61167 74.4428 8.66956C74.2434 8.72103 74.0375 8.74681 73.8251 8.74681C73.6 8.74681 73.3844 8.71782 73.1786 8.65993C72.9791 8.60203 72.8022 8.51845 72.6478 8.409C72.4934 8.29321 72.3711 8.15489 72.281 7.99405C72.191 7.8332 72.1459 7.64984 72.1459 7.44395C72.1459 7.25737 72.1878 7.08688 72.2714 6.93247C72.3615 6.77162 72.4805 6.6333 72.6284 6.51748C72.7764 6.40168 72.9534 6.3116 73.1593 6.24727C73.3652 6.18292 73.5903 6.15076 73.8348 6.15076C74.0471 6.15076 74.253 6.17971 74.4525 6.23761C74.6584 6.29552 74.8385 6.37915 74.9929 6.48854C75.1473 6.59791 75.2696 6.73302 75.3596 6.89386C75.4561 7.05471 75.5044 7.23807 75.5044 7.44395ZM75.3596 18.6871C75.3596 19.2983 75.2342 19.7679 74.9832 20.096C74.7387 20.4242 74.3302 20.5883 73.7576 20.5883C73.2172 20.5883 72.8343 20.4242 72.6092 20.096C72.3904 19.7679 72.281 19.2983 72.281 18.6871V12.7808C72.281 12.1696 72.3904 11.6999 72.6092 11.3718C72.8343 11.0437 73.2172 10.8796 73.7576 10.8796C74.3302 10.8796 74.7387 11.0437 74.9832 11.3718C75.2342 11.6999 75.3596 12.1696 75.3596 12.7808V18.6871Z" fill="#8B888A"/>
<path d="M79.7974 15.705C79.7974 16.1361 79.8296 16.5381 79.894 16.9113C79.9647 17.2845 80.0805 17.6126 80.2413 17.8957C80.4087 18.1723 80.6274 18.3911 80.8976 18.5519C81.1742 18.7128 81.5153 18.7932 81.9206 18.7932C82.2937 18.7932 82.6058 18.716 82.8569 18.5616C83.1139 18.4008 83.3198 18.182 83.4746 17.9053C83.6286 17.6222 83.7381 17.2909 83.8024 16.9113C83.8732 16.5317 83.9086 16.1199 83.9086 15.676C83.9086 15.3222 83.8831 14.9619 83.8312 14.5952C83.7801 14.2219 83.6838 13.8842 83.5421 13.5818C83.4005 13.2794 83.2045 13.0317 82.9533 12.8387C82.7021 12.6457 82.3744 12.5492 81.9689 12.5492C81.5635 12.5492 81.2193 12.6135 80.9362 12.7422C80.6595 12.8709 80.4344 13.0671 80.2607 13.3309C80.0933 13.5947 79.9743 13.926 79.9036 14.3249C79.8328 14.7174 79.7974 15.1774 79.7974 15.705ZM79.7878 12.7808C79.9487 12.4398 80.1545 12.1406 80.4055 11.8833C80.6563 11.6259 80.933 11.4104 81.2354 11.2366C81.5378 11.063 81.8531 10.9342 82.1812 10.8507C82.516 10.7606 82.8471 10.7155 83.1748 10.7155C83.7669 10.7155 84.3014 10.8474 84.7774 11.1112C85.2534 11.375 85.6586 11.7353 85.9929 12.1921C86.3339 12.6425 86.5949 13.1765 86.7753 13.7941C86.9548 14.4053 87.0454 15.0616 87.0454 15.7628C87.0454 16.4899 86.9482 17.1558 86.7555 17.7606C86.5694 18.3654 86.3018 18.8865 85.9542 19.324C85.6133 19.7551 85.2015 20.0928 84.7189 20.3373C84.2429 20.5818 83.7126 20.704 83.1271 20.704C82.4065 20.704 81.763 20.5368 81.1968 20.2022C80.6306 19.8676 80.161 19.398 79.7878 18.7932V22.2675C79.7878 22.8786 79.6623 23.3484 79.4114 23.6765C79.1669 24.0046 78.7584 24.1687 78.1857 24.1687C77.6453 24.1687 77.2625 24.0046 77.0373 23.6765C76.8186 23.3484 76.7092 22.8786 76.7092 22.2675V12.7808C76.7092 12.1695 76.8186 11.6999 77.0373 11.3718C77.2625 11.0437 77.6453 10.8796 78.1857 10.8796C78.7584 10.8796 79.1669 11.0437 79.4114 11.3718C79.6623 11.6999 79.7878 12.1695 79.7878 12.7808Z" fill="#8B888A"/>
<path d="M90.4408 13.466C90.4408 13.7169 90.5503 13.9131 90.7686 14.0547C90.9876 14.1898 91.2899 14.3024 91.6761 14.3925C92.0426 14.4761 92.4189 14.5565 92.8052 14.6337C93.1914 14.7109 93.5677 14.801 93.9342 14.904C94.3007 15.0004 94.6449 15.1163 94.9669 15.2513C95.2881 15.3865 95.5714 15.5569 95.816 15.7628C96.0606 15.9623 96.2533 16.2068 96.3949 16.4963C96.5366 16.7794 96.6074 17.1204 96.6074 17.5193C96.6074 18.0211 96.5044 18.4683 96.2986 18.8607C96.0927 19.2468 95.8003 19.5749 95.4207 19.8451C95.0476 20.1153 94.6005 20.3244 94.0792 20.4724C93.5579 20.6204 92.9822 20.6976 92.3514 20.704C91.7535 20.704 91.177 20.6655 90.6236 20.5882C90.071 20.5175 89.5786 20.4048 89.147 20.2504C88.7229 20.096 88.382 19.9063 88.1242 19.681C87.8673 19.4494 87.7388 19.1792 87.7388 18.8704C87.7388 18.6001 87.8253 18.391 87.999 18.2431C88.1728 18.0951 88.3943 18.0211 88.6653 18.0211C88.7682 18.0211 88.8901 18.0404 89.0317 18.079C89.1734 18.1176 89.3274 18.1659 89.4946 18.2238C89.6617 18.2817 89.8388 18.346 90.0257 18.4168C90.2185 18.4811 90.4177 18.539 90.6236 18.5905C90.8814 18.6613 91.1449 18.7192 91.415 18.7643C91.6917 18.8028 91.975 18.8222 92.2649 18.8222C92.4445 18.8222 92.6215 18.806 92.7953 18.7739C92.969 18.7353 93.1239 18.6806 93.2589 18.6099C93.4006 18.5326 93.5159 18.4361 93.6065 18.3203C93.6962 18.2045 93.7506 18.0629 93.7703 17.8957C93.7893 17.8571 93.8057 17.8184 93.8181 17.7798C93.8313 17.7413 93.8379 17.6962 93.8379 17.6448C93.8379 17.4646 93.7539 17.3037 93.5867 17.1622C93.4261 17.0207 93.1972 16.908 92.9015 16.8244C92.4057 16.7087 91.933 16.6025 91.4826 16.506C91.0329 16.4095 90.6146 16.3065 90.2283 16.1972C89.8487 16.0878 89.5012 15.9623 89.1857 15.8207C88.8769 15.6792 88.6134 15.5055 88.3943 15.2996C88.1827 15.0937 88.0147 14.846 87.8928 14.5565C87.7767 14.267 87.719 13.9163 87.719 13.5045C87.719 13.0607 87.8187 12.665 88.018 12.3175C88.2239 11.9636 88.517 11.6677 88.8967 11.4297C89.2763 11.1916 89.7359 11.0115 90.2769 10.8893C90.8172 10.7605 91.4282 10.6962 92.1101 10.6962C93.3322 10.6962 94.262 10.8442 94.8994 11.1401C95.5426 11.4297 95.8646 11.8092 95.8646 12.279C95.8646 12.5427 95.7773 12.7454 95.6035 12.8869C95.4297 13.022 95.2206 13.0896 94.9768 13.0896C94.8475 13.0896 94.7125 13.0671 94.5708 13.022C94.4357 12.9706 94.2719 12.9159 94.0792 12.858C93.8856 12.7937 93.6542 12.739 93.3841 12.6939C93.1206 12.6425 92.792 12.6167 92.4 12.6167C92.1035 12.6167 91.8334 12.6295 91.5888 12.6553C91.3508 12.681 91.1449 12.7261 90.9712 12.7904C90.804 12.8548 90.6722 12.9416 90.5759 13.051C90.4853 13.1604 90.4408 13.2987 90.4408 13.466Z" fill="#8B888A"/>
<path d="M100.524 17.0078C100.524 17.3102 100.563 17.574 100.64 17.7992C100.723 18.0244 100.836 18.2142 100.978 18.3686C101.12 18.5166 101.283 18.6292 101.47 18.7063C101.663 18.7771 101.869 18.8126 102.087 18.8126C102.345 18.8126 102.593 18.7739 102.831 18.6967C103.069 18.6195 103.278 18.5004 103.458 18.3396C103.644 18.1788 103.793 17.9761 103.902 17.7316C104.011 17.4872 104.066 17.2008 104.066 16.8727V12.7808C104.066 12.1696 104.176 11.6999 104.394 11.3718C104.62 11.0437 105.002 10.8796 105.543 10.8796C106.115 10.8796 106.524 11.0437 106.768 11.3718C107.019 11.6999 107.144 12.1696 107.144 12.7808V18.687C107.144 19.2983 107.019 19.7679 106.768 20.096C106.524 20.4242 106.115 20.5882 105.543 20.5882C105.002 20.5882 104.62 20.4242 104.394 20.096C104.176 19.7679 104.066 19.2983 104.066 18.687C103.931 18.983 103.754 19.2532 103.535 19.4977C103.322 19.7422 103.072 19.9545 102.782 20.1346C102.499 20.3084 102.184 20.4435 101.837 20.54C101.496 20.6365 101.125 20.6848 100.727 20.6848C100.296 20.6848 99.8809 20.6107 99.4815 20.4628C99.0895 20.3084 98.742 20.0832 98.4398 19.7872C98.1375 19.4849 97.8962 19.1117 97.7159 18.6678C97.5355 18.2238 97.4458 17.7059 97.4458 17.1139V12.7808C97.4458 12.1696 97.5553 11.6999 97.7735 11.3718C97.9992 11.0437 98.3813 10.8796 98.9224 10.8796C99.4947 10.8796 99.9032 11.0437 100.148 11.3718C100.399 11.6999 100.524 12.1696 100.524 12.7808V17.0078Z" fill="#8B888A"/>
<path d="M108.542 12.7808C108.542 12.1695 108.652 11.6999 108.871 11.3718C109.095 11.0437 109.478 10.8796 110.019 10.8796C110.592 10.8796 111 11.0437 111.245 11.3718C111.495 11.6999 111.621 12.1695 111.621 12.7808C111.75 12.4719 111.923 12.1921 112.142 11.9412C112.367 11.6838 112.622 11.4651 112.904 11.2849C113.194 11.1048 113.506 10.9664 113.841 10.8699C114.175 10.767 114.522 10.7155 114.883 10.7155C115.218 10.7155 115.545 10.7606 115.867 10.8507C116.195 10.9342 116.498 11.0726 116.775 11.2656C117.057 11.4522 117.305 11.6902 117.518 11.9798C117.73 12.2693 117.894 12.6167 118.01 13.0221C118.209 12.591 118.444 12.2275 118.714 11.9315C118.984 11.6356 119.278 11.3975 119.592 11.2174C119.908 11.0372 120.236 10.9086 120.577 10.8313C120.925 10.7541 121.271 10.7155 121.619 10.7155C122.031 10.7155 122.423 10.7896 122.796 10.9375C123.176 11.0854 123.507 11.3107 123.79 11.6131C124.08 11.909 124.308 12.2854 124.476 12.7422C124.649 13.1925 124.736 13.7202 124.736 14.3249V18.687C124.736 19.2983 124.611 19.7679 124.36 20.096C124.116 20.4242 123.706 20.5882 123.134 20.5882C122.594 20.5882 122.211 20.4242 121.986 20.096C121.767 19.7679 121.658 19.2983 121.658 18.687V14.46C121.658 14.1705 121.619 13.9131 121.542 13.688C121.465 13.4563 121.355 13.2634 121.214 13.1089C121.079 12.9481 120.918 12.829 120.731 12.7519C120.545 12.6682 120.345 12.6264 120.133 12.6264C119.869 12.6264 119.618 12.6682 119.38 12.7519C119.142 12.8354 118.933 12.9642 118.753 13.1378C118.579 13.3116 118.438 13.5336 118.328 13.8038C118.225 14.074 118.174 14.3989 118.174 14.7785V18.687C118.174 19.2983 118.048 19.7679 117.798 20.096C117.553 20.4242 117.145 20.5882 116.571 20.5882C116.031 20.5882 115.648 20.4242 115.423 20.096C115.204 19.7679 115.095 19.2983 115.095 18.687V14.6433C115.095 13.9807 114.956 13.4789 114.681 13.1378C114.41 12.7969 114.04 12.6264 113.57 12.6264C113.294 12.6264 113.036 12.6714 112.798 12.7615C112.56 12.8516 112.354 12.9834 112.18 13.1572C112.007 13.3309 111.868 13.5464 111.765 13.8038C111.669 14.0611 111.621 14.3571 111.621 14.6916V18.687C111.621 19.2983 111.495 19.7679 111.245 20.096C111 20.4242 110.592 20.5882 110.019 20.5882C109.478 20.5882 109.095 20.4242 108.871 20.096C108.652 19.7679 108.542 19.2983 108.542 18.687V12.7808Z" fill="#8B888A"/>
<path d="M14 18.9412C11.2711 18.9412 9.05882 16.7289 9.05882 14C9.05882 11.2711 11.2711 9.05884 14 9.05884C16.7289 9.05884 18.9412 11.2711 18.9412 14C18.9412 16.7289 16.7289 18.9412 14 18.9412Z" fill="#8B888A"/>
<path d="M4.42748 15.6879C2.99557 15.9404 2.01407 17.3236 2.56374 18.6698C3.33113 20.5491 4.55542 22.2235 6.14261 23.5319C8.41219 25.4027 11.2748 26.4024 14.2156 26.3511C17.1564 26.2998 19.9824 25.2008 22.1854 23.2518C23.7259 21.8889 24.891 20.1727 25.5924 18.2678C26.0948 16.9033 25.0655 15.5552 23.6257 15.3528C22.1859 15.1505 20.8931 16.1985 20.1819 17.4667C19.7964 18.1541 19.296 18.7778 18.6964 19.3082C17.4325 20.4265 15.811 21.057 14.1238 21.0865C12.4364 21.1159 10.794 20.5424 9.49183 19.4689C8.8741 18.9597 8.35223 18.3539 7.94296 17.6804C7.18795 16.4377 5.85939 15.4354 4.42748 15.6879Z" fill="#8B888A"/>
<path d="M26.2574 15.5437C26.3205 15.038 26.3529 14.5228 26.3529 14C26.3529 7.17763 20.8224 1.64703 14 1.64703C7.17766 1.64703 1.64706 7.17763 1.64706 14C1.64706 14.6709 1.70055 15.3293 1.8035 15.9713C2.3709 15.1945 3.25645 14.64 4.21298 14.4714C5.24791 14.2889 6.18848 14.5399 6.98376 15.009C6.93677 14.6795 6.91246 14.3426 6.91246 14C6.91246 10.0857 10.0857 6.91243 14 6.91243C17.9143 6.91243 21.0875 10.0857 21.0875 14C21.0875 14.2581 21.0737 14.513 21.0469 14.7639C21.8253 14.267 22.7568 13.9832 23.7976 14.1295C24.7592 14.2647 25.6632 14.7876 26.2574 15.5437Z" fill="#8B888A"/>
</svg>
