<svg width="126" height="29" viewBox="0 0 126 29" fill="none" xmlns="http://www.w3.org/2000/svg">
<g opacity="0.6">
<path d="M36.2947 8.02318H39.4601V20.7597H36.2947V8.02318ZM40.7157 15.9507C40.7157 12.8007 42.6571 10.9212 45.6536 10.9212C48.6501 10.9212 50.5915 12.8007 50.5915 15.9507C50.5915 19.1007 48.6923 20.9907 45.6536 20.9907C42.6149 20.9907 40.7157 19.1532 40.7157 15.9507ZM47.4156 15.9507C47.4156 14.2182 46.7298 13.1997 45.6536 13.1997C44.5774 13.1997 43.9021 14.2497 43.9021 15.9507C43.9021 17.6517 44.5668 18.6807 45.6536 18.6807C46.7404 18.6807 47.4156 17.7147 47.4156 15.9612V15.9507ZM51.7838 21.3792H54.8225C54.9672 21.6989 55.2117 21.9636 55.5196 22.1339C55.8276 22.3042 56.1826 22.3709 56.5318 22.3242C57.7347 22.3242 58.3677 21.6732 58.3677 20.7282V18.9642H58.3044C58.0522 19.5048 57.643 19.9578 57.1296 20.2648C56.6161 20.5717 56.022 20.7185 55.424 20.6862C53.1133 20.6862 51.5834 18.9327 51.5834 15.9192C51.5834 12.9057 53.0394 11.0052 55.4662 11.0052C56.083 10.9811 56.6925 11.1452 57.2129 11.4755C57.7334 11.8058 58.14 12.2865 58.3783 12.8532V11.0997H61.5436V20.6547C61.5436 22.9542 59.5072 24.3822 56.5002 24.3822C53.7041 24.3822 51.9632 23.1327 51.7838 21.3897V21.3792ZM58.3783 15.9402C58.3783 14.4072 57.6714 13.4412 56.5529 13.4412C55.4345 13.4412 54.7487 14.3967 54.7487 15.9402C54.7487 17.4837 55.424 18.3552 56.5529 18.3552C57.6819 18.3552 58.3783 17.5047 58.3783 15.9507V15.9402ZM62.7359 15.9402C62.7359 12.7902 64.6773 10.9107 67.6738 10.9107C70.6704 10.9107 72.6223 12.7902 72.6223 15.9402C72.6223 19.0902 70.7231 20.9802 67.6738 20.9802C64.6246 20.9802 62.7359 19.1532 62.7359 15.9507V15.9402ZM69.4359 15.9402C69.4359 14.2077 68.7501 13.1892 67.6738 13.1892C66.5976 13.1892 65.9751 14.2497 65.9751 15.9612C65.9751 17.6727 66.6398 18.6912 67.716 18.6912C68.7923 18.6912 69.4359 17.7147 69.4359 15.9612V15.9402ZM73.8251 8.81068C73.8169 8.49264 73.9036 8.17932 74.0745 7.91042C74.2454 7.64152 74.4926 7.42916 74.7849 7.30026C75.0772 7.17136 75.4013 7.13173 75.7163 7.18639C76.0312 7.24104 76.3227 7.38753 76.5539 7.60727C76.7851 7.82701 76.9455 8.11012 77.0149 8.4207C77.0842 8.73128 77.0592 9.05534 76.9433 9.35181C76.8273 9.64828 76.6255 9.90381 76.3634 10.086C76.1013 10.2682 75.7908 10.3688 75.4711 10.3752C75.2592 10.3897 75.0466 10.3604 74.8467 10.2892C74.6467 10.218 74.4637 10.1064 74.3091 9.96149C74.1545 9.81654 74.0317 9.64135 73.9485 9.44692C73.8652 9.25249 73.8232 9.04303 73.8251 8.83168V8.81068ZM73.8251 11.1207H76.9905V20.7597H73.8251V11.1207ZM88.4807 15.9402C88.4807 19.0902 87.0774 20.8857 84.6717 20.8857C84.0548 20.9251 83.4407 20.775 82.9123 20.4558C82.3839 20.1365 81.9668 19.6635 81.7174 19.1007H81.6541V23.8467H78.4887V11.0997H81.6541V12.8217H81.7174C81.9552 12.2496 82.3644 11.7642 82.8892 11.4317C83.4141 11.0992 84.0291 10.9356 84.6506 10.9632C87.0774 11.0052 88.5229 12.8112 88.5229 15.9612L88.4807 15.9402ZM85.3153 15.9402C85.3153 14.4072 84.6084 13.4307 83.5005 13.4307C82.3927 13.4307 81.6857 14.4177 81.6752 15.9402C81.6646 17.4627 82.3927 18.4392 83.5005 18.4392C84.6084 18.4392 85.3153 17.4837 85.3153 15.9612V15.9402ZM93.9145 10.9002C96.5417 10.9002 98.135 12.1392 98.2088 14.1237H95.3284C95.3284 13.4412 94.7586 13.0107 93.8829 13.0107C93.0071 13.0107 92.6167 13.3467 92.6167 13.8402C92.6167 14.3337 92.9649 14.4912 93.6718 14.6382L95.6977 15.0477C97.6285 15.4572 98.4515 16.2342 98.4515 17.6937C98.4515 19.6887 96.6262 20.9697 93.9356 20.9697C91.2451 20.9697 89.483 19.6887 89.3459 17.7252H92.3951C92.4901 18.4392 93.0599 18.8592 93.9884 18.8592C94.9169 18.8592 95.3389 18.5547 95.3389 18.0507C95.3389 17.5467 95.0435 17.4417 94.2838 17.2842L92.4585 16.8957C90.5698 16.5072 89.578 15.5097 89.578 14.0397C89.5991 12.1497 91.2978 10.9212 93.9145 10.9212V10.9002ZM109.013 20.7387H105.964V18.9432H105.901C105.733 19.546 105.363 20.0736 104.853 20.4385C104.342 20.8033 103.722 20.9833 103.094 20.9487C102.613 20.9759 102.132 20.9 101.683 20.7263C101.234 20.5525 100.828 20.2849 100.492 19.9415C100.156 19.5981 99.8976 19.1869 99.7349 18.7357C99.5723 18.2846 99.5088 17.8039 99.5488 17.3262V11.0997H102.714V16.6017C102.714 17.7462 103.305 18.3552 104.286 18.3552C104.516 18.3556 104.744 18.3072 104.954 18.213C105.163 18.1188 105.35 17.9811 105.502 17.809C105.654 17.637 105.767 17.4347 105.834 17.2156C105.901 16.9965 105.92 16.7657 105.89 16.5387V11.0997H109.055L109.013 20.7387ZM110.543 11.0997H113.603V12.9582H113.666C113.834 12.3633 114.196 11.8407 114.694 11.4721C115.192 11.1035 115.799 10.9098 116.42 10.9212C117.052 10.8709 117.679 11.059 118.178 11.4481C118.676 11.8372 119.009 12.3988 119.111 13.0212H119.174C119.365 12.3922 119.762 11.8444 120.3 11.4642C120.839 11.084 121.49 10.893 122.149 10.9212C122.58 10.9068 123.009 10.9827 123.408 11.1439C123.807 11.3052 124.167 11.5482 124.466 11.8572C124.764 12.1661 124.994 12.5341 125.14 12.9373C125.287 13.3404 125.346 13.7697 125.315 14.1972V20.7597H122.149V15.0372C122.149 13.9872 121.675 13.5042 120.788 13.5042C120.591 13.5025 120.395 13.5431 120.214 13.6231C120.034 13.7031 119.873 13.8207 119.742 13.968C119.611 14.1152 119.513 14.2888 119.455 14.4768C119.397 14.6649 119.38 14.8632 119.406 15.0582V20.7597H116.399V14.9952C116.399 14.0292 115.924 13.5042 115.059 13.5042C114.859 13.5042 114.662 13.5465 114.479 13.6281C114.297 13.7097 114.134 13.8289 114.002 13.9777C113.869 14.1266 113.77 14.3017 113.71 14.4915C113.65 14.6814 113.632 14.8817 113.656 15.0792V20.7597H110.49L110.543 11.0997Z" fill="#1D2130"/>
<path d="M27.4424 8.60074C26.9054 7.37891 26.1947 6.24027 25.3321 5.21974C24.057 3.66609 22.4657 2.3988 20.6629 1.50128C18.8601 0.603749 16.8868 0.0963363 14.8728 0.0124328C12.8588 -0.0714706 10.8497 0.270036 8.97789 1.01448C7.10606 1.75892 5.41387 2.88942 4.0127 4.33157C2.61153 5.77372 1.53315 7.49483 0.848542 9.3816C0.16393 11.2684 -0.111396 13.278 0.0406901 15.2783C0.192776 17.2786 0.768823 19.2242 1.73092 20.987C2.69301 22.7498 4.01934 24.2898 5.6226 25.5057C6.65135 26.3015 7.78807 26.9484 8.99897 27.4272C10.6967 28.1196 12.5137 28.4762 14.3484 28.4772C18.1356 28.4689 21.765 26.9666 24.441 24.2996C27.117 21.6326 28.6213 18.0186 28.6241 14.2497C28.6269 12.3057 28.2245 10.3822 27.4424 8.60074ZM14.3378 2.89924C15.9855 2.89906 17.6132 3.25743 19.107 3.94924C18.7427 4.10586 18.3597 4.21526 17.9674 4.27474C16.6766 4.46069 15.4808 5.05707 14.5585 5.97487C13.6363 6.89267 13.037 8.08266 12.8501 9.36724C12.7681 10.0877 12.4389 10.7579 11.918 11.2648C11.397 11.7717 10.7164 12.0843 9.99078 12.1497C8.69994 12.3357 7.50415 12.9321 6.58188 13.8499C5.65962 14.7677 5.06033 15.9577 4.87347 17.2422C4.81021 17.9272 4.51652 18.571 4.03993 19.0692C3.21763 17.3402 2.84824 15.4322 2.96612 13.5228C3.08399 11.6135 3.68531 9.76487 4.71412 8.14897C5.74293 6.53307 7.16578 5.20243 8.85027 4.28088C10.5348 3.35932 12.4261 2.87681 14.3484 2.87824L14.3378 2.89924ZM5.61206 21.5997C5.73867 21.4842 5.86528 21.3792 5.9919 21.2532C6.93058 20.3476 7.53312 19.152 7.70118 17.8617C7.76932 17.1364 8.09474 16.459 8.61913 15.9507C9.12374 15.428 9.80294 15.1069 10.5289 15.0477C11.8197 14.8618 13.0155 14.2654 13.9378 13.3476C14.86 12.4298 15.4593 11.2398 15.6462 9.95524C15.6918 9.19663 16.019 8.48192 16.5641 7.94974C17.0812 7.43718 17.7669 7.1277 18.495 7.07824C19.6809 6.91587 20.7868 6.39124 21.6603 5.57674C22.6549 6.39791 23.4976 7.38578 24.1504 8.49574C24.1103 8.54965 24.0643 8.59896 24.0132 8.64274C23.5096 9.17004 22.8313 9.49824 22.1035 9.56674C20.8113 9.74944 19.6137 10.3448 18.6909 11.2632C17.768 12.1816 17.1698 13.3733 16.9862 14.6592C16.9118 15.3821 16.5886 16.0571 16.0714 16.57C15.5541 17.0828 14.8746 17.4019 14.1479 17.4732C12.8533 17.6578 11.6531 18.253 10.7255 19.1704C9.79786 20.0878 9.19238 21.2786 8.99897 22.5657C8.94219 23.0789 8.7651 23.5716 8.48196 24.0042C7.39941 23.3646 6.42986 22.5523 5.61206 21.5997ZM14.3378 25.6527C13.2672 25.6539 12.2017 25.5054 11.1725 25.2117C11.5246 24.5586 11.7534 23.8469 11.8478 23.1117C11.9217 22.3905 12.2434 21.7167 12.7585 21.2041C13.2737 20.6914 13.9507 20.3713 14.6755 20.2977C15.9682 20.1139 17.1664 19.5184 18.0907 18.6004C19.0151 17.6825 19.6159 16.4913 19.8033 15.2052C19.8773 14.484 20.199 13.8102 20.7141 13.2976C21.2292 12.7849 21.9063 12.4648 22.631 12.3912C23.6039 12.2653 24.5311 11.9049 25.3321 11.3412C25.7769 13.019 25.8296 14.7759 25.4862 16.4772C25.1427 18.1784 24.4122 19.7787 23.3508 21.1553C22.2893 22.532 20.9251 23.6484 19.3628 24.4189C17.8004 25.1894 16.0815 25.5935 14.3378 25.6002V25.6527Z" fill="#1D2130"/>
</g>
</svg>
