<svg width="107" height="29" viewBox="0 0 107 29" fill="none" xmlns="http://www.w3.org/2000/svg">
<path d="M35.7201 19.1136H38.0394V8.1991H35.7201V19.1136Z" fill="#8B888A"/>
<path d="M42.7973 19.3562C45.2227 19.3562 46.8144 17.7948 46.8144 15.0358C46.8144 12.3678 45.2682 10.7003 42.7973 10.7003C40.3718 10.7003 38.7953 12.2617 38.7953 15.0358C38.7953 17.719 40.3264 19.3562 42.7973 19.3562ZM42.7973 17.4764C41.7513 17.4764 41.1753 16.6124 41.1753 15.0358C41.1753 13.4441 41.7362 12.58 42.7973 12.58C43.8584 12.58 44.4345 13.4593 44.4345 15.0358C44.4345 16.6275 43.8736 17.4764 42.7973 17.4764Z" fill="#8B888A"/>
<path d="M50.5877 19.1288C51.4669 19.1288 52.1946 18.765 52.71 18.0525V19.4168C52.71 20.5537 52.1491 20.9327 51.3153 20.9327C50.5119 20.9327 49.8904 20.5386 49.7994 19.8109H47.4801C47.7681 21.7968 49.2689 22.7063 51.3457 22.7063C53.4831 22.7063 55.0293 21.5694 55.0293 19.3865V10.958H52.71V11.716C52.2097 11.049 51.4973 10.7003 50.5877 10.7003C48.5564 10.7003 47.2375 12.2162 47.2375 14.9297C47.2375 17.5219 48.5261 19.1288 50.5877 19.1288ZM51.1486 17.249C50.1481 17.249 49.6175 16.4153 49.6175 14.9297C49.6175 13.3986 50.1481 12.58 51.1486 12.58C52.1643 12.58 52.71 13.4138 52.71 14.9145C52.71 16.4305 52.1794 17.249 51.1486 17.249Z" fill="#8B888A"/>
<path d="M59.8003 19.3562C62.2258 19.3562 63.8175 17.7948 63.8175 15.0358C63.8175 12.3678 62.2712 10.7003 59.8003 10.7003C57.3749 10.7003 55.7983 12.2617 55.7983 15.0358C55.7983 17.719 57.3294 19.3562 59.8003 19.3562ZM59.8003 17.4764C58.7543 17.4764 58.1783 16.6124 58.1783 15.0358C58.1783 13.4441 58.7392 12.58 59.8003 12.58C60.8614 12.58 61.4375 13.4593 61.4375 15.0358C61.4375 16.6275 60.8766 17.4764 59.8003 17.4764Z" fill="#8B888A"/>
<path d="M64.5893 10.1395H66.9089V8.1991H64.5893V10.1395ZM64.5893 19.1136H66.9089V10.9581H64.5893V19.1136Z" fill="#8B888A"/>
<path d="M70.3322 22.4638V18.295C70.8173 18.9923 71.5147 19.3562 72.3787 19.3562C74.4555 19.3562 75.8047 17.7948 75.8047 15.0207C75.8047 12.3527 74.4858 10.7003 72.3787 10.7003C71.5298 10.7003 70.8325 11.0945 70.3322 11.8069V10.958H68.0129V22.4638H70.3322ZM71.8936 12.58C72.879 12.58 73.4247 13.4441 73.4247 15.0207C73.4247 16.6124 72.8941 17.4764 71.8936 17.4764C70.878 17.4764 70.3322 16.5972 70.3322 15.0207C70.3322 13.4441 70.8628 12.58 71.8936 12.58Z" fill="#8B888A"/>
<path d="M78.59 13.2167C78.59 12.7771 78.9841 12.4739 79.5905 12.4739C80.4091 12.4739 80.8942 12.8226 81.0306 13.6563H83.3348C83.1074 11.5947 81.6218 10.7003 79.6663 10.7003C77.4834 10.7003 76.3768 11.9737 76.3768 13.338C76.3768 16.6124 81.3186 15.2026 81.3186 16.7791C81.3186 17.2794 80.9093 17.5977 80.0907 17.5977C79.2267 17.5977 78.6051 17.1884 78.499 16.4305H76.1797C76.4829 18.4466 77.9685 19.3562 80.0301 19.3562C82.1524 19.3562 83.638 18.2495 83.638 16.6427C83.638 13.4138 78.59 14.8236 78.59 13.2167Z" fill="#8B888A"/>
<path d="M89.3523 15.6422C89.3523 16.6882 88.7762 17.4765 87.8818 17.4765C87.0632 17.4765 86.6691 16.9611 86.6691 15.9151V10.9581H84.3498V16.385C84.3498 18.4163 85.4867 19.3562 87.0329 19.3562C88.0183 19.3562 88.8217 18.9318 89.3523 18.0222V19.1137H91.6716V10.9581H89.3523V15.6422Z" fill="#8B888A"/>
<path d="M92.7921 19.1136H95.1114V14.4295C95.1114 13.3835 95.642 12.58 96.4454 12.58C97.1882 12.58 97.552 13.1106 97.552 14.1414V19.1136H99.8562V14.4295C99.8562 13.3835 100.402 12.58 101.205 12.58C101.948 12.58 102.297 13.1106 102.297 14.1414V19.1136H104.616V13.6715C104.616 11.6553 103.494 10.7003 101.978 10.7003C100.963 10.7003 100.099 11.1248 99.5379 12.0495C99.1286 11.1399 98.31 10.7003 97.3398 10.7003C96.4 10.7003 95.6268 11.1096 95.1114 11.9888V10.958H92.7921V19.1136Z" fill="#8B888A"/>
<path d="M26.9241 22.4438C29.4366 20.2002 30.9773 17.1725 30.9773 13.8409C30.9773 6.9248 24.3378 1.31818 16.1477 1.31818C7.95759 1.31818 1.31818 6.9248 1.31818 13.8409C1.31818 20.757 7.95759 26.3636 16.1477 26.3636C18.4712 26.3636 20.6699 25.9124 22.6276 25.108C24.9273 26.5275 27.7449 27.5478 30.8566 27.3326C29.2127 26.9148 27.7987 25.222 26.9241 22.4438Z" fill="#8B888A"/>
<path d="M27.0227 13.8409C27.0227 18.937 22.1538 23.0682 16.1477 23.0682C10.1416 23.0682 5.27274 18.937 5.27274 13.8409C5.27274 8.74483 10.1416 4.61365 16.1477 4.61365C22.1538 4.61365 27.0227 8.74483 27.0227 13.8409Z" fill="#6A6969"/>
<path d="M23.0682 13.8409C23.0682 17.117 19.9698 19.7728 16.1477 19.7728C12.3257 19.7728 9.22726 17.117 9.22726 13.8409C9.22726 10.5649 12.3257 7.90912 16.1477 7.90912C19.9698 7.90912 23.0682 10.5649 23.0682 13.8409Z" fill="#5E5E5E"/>
</svg>
