<svg width="143" height="28" viewBox="0 0 143 28" fill="none" xmlns="http://www.w3.org/2000/svg">
<g opacity="0.6">
<path d="M21.3558 12.2881C20.9581 12.6885 20.6535 13.1717 20.4638 13.7033C20.274 14.2348 20.2038 14.8017 20.2581 15.3636L20.2392 15.3447C20.295 16.006 20.2058 16.6716 19.978 17.2949C19.7502 17.9182 19.3891 18.4843 18.92 18.9536C18.451 19.4229 17.8852 19.7841 17.2622 20.0121C16.6391 20.24 15.9739 20.3292 15.3129 20.2734L15.3318 20.2923C14.5411 20.2187 13.7469 20.3908 13.0576 20.7853C12.3683 21.1798 11.8173 21.7773 11.4799 22.4966C11.1424 23.2158 11.0349 24.0216 11.172 24.8042C11.3091 25.5868 11.6841 26.308 12.2459 26.8696C12.8076 27.4311 13.5289 27.8057 14.3112 27.9421C15.0935 28.0785 15.8989 27.9702 16.6174 27.632C17.336 27.2937 17.9328 26.742 18.3264 26.0519C18.7201 25.3619 18.8914 24.5672 18.8171 23.7762L18.8371 23.7951C18.7813 23.1337 18.8704 22.4682 19.0982 21.8449C19.3261 21.2215 19.6871 20.6555 20.1562 20.1862C20.6253 19.7169 21.191 19.3556 21.8141 19.1277C22.4371 18.8997 23.1023 18.8106 23.7633 18.8664L23.7434 18.8475C24.3893 18.9056 25.0394 18.7997 25.6335 18.5395C26.2276 18.2793 26.7464 17.8732 27.1419 17.359C27.5373 16.8448 27.7967 16.239 27.8958 15.5978C27.995 14.9566 27.9308 14.3007 27.7091 13.691C27.4874 13.0812 27.1155 12.5373 26.6278 12.1097C26.1401 11.682 25.5524 11.3844 24.9192 11.2445C24.2859 11.1046 23.6276 11.1269 23.0052 11.3094C22.3829 11.4918 21.8166 11.8285 21.359 12.2881H21.3558Z" fill="#1D2130"/>
<path d="M13.6137 17.8163L13.5938 17.7974C14.1556 17.8541 14.723 17.7851 15.2549 17.5955C15.7868 17.4058 16.2699 17.1003 16.6694 16.701C17.0688 16.3017 17.3745 15.8185 17.5645 15.2865C17.7544 14.7545 17.8238 14.1869 17.7676 13.6247L17.7875 13.6436C17.7317 12.9823 17.8209 12.3167 18.0487 11.6934C18.2765 11.0701 18.6376 10.504 19.1067 10.0347C19.5757 9.56541 20.1415 9.20418 20.7645 8.97623C21.3876 8.74829 22.0528 8.65911 22.7138 8.71494L22.6939 8.69604C23.4846 8.77034 24.2791 8.59877 24.9688 8.20474C25.6585 7.81072 26.21 7.21341 26.5479 6.4943C26.8859 5.77519 26.9939 4.96928 26.8572 4.1865C26.7205 3.40371 26.3458 2.68217 25.7842 2.12028C25.2226 1.55839 24.5014 1.1835 23.719 1.04676C22.9366 0.910021 22.1311 1.01808 21.4123 1.3562C20.6936 1.69432 20.0966 2.24604 19.7027 2.9361C19.3089 3.62617 19.1374 4.42098 19.2117 5.21214L19.1928 5.19219C19.2488 5.85357 19.1598 6.51921 18.932 7.14262C18.7042 7.76603 18.3432 8.33217 17.8741 8.80152C17.405 9.27086 16.8391 9.63209 16.216 9.85997C15.5929 10.0879 14.9276 10.1769 14.2665 10.1209L14.2854 10.1408C13.7236 10.0842 13.1562 10.1532 12.6243 10.3428C12.0924 10.5324 11.6093 10.838 11.2098 11.2373C10.8104 11.6366 10.5047 12.1197 10.3147 12.6518C10.1248 13.1838 10.0554 13.7514 10.1116 14.3135L10.0927 14.2946C10.1483 14.9559 10.0591 15.6214 9.83118 16.2447C9.60328 16.8679 9.24222 17.4339 8.77319 17.9032C8.30416 18.3724 7.73844 18.7337 7.11551 18.9617C6.49258 19.1897 5.82743 19.279 5.16645 19.2233L5.18534 19.2422C4.39458 19.1679 3.60015 19.3395 2.91043 19.7335C2.2207 20.1276 1.66925 20.7249 1.3313 21.444C0.993348 22.1631 0.885342 22.969 1.02202 23.7518C1.15869 24.5346 1.53339 25.2561 2.09501 25.818C2.65662 26.3799 3.37781 26.7548 4.16021 26.8915C4.94261 27.0283 5.74812 26.9202 6.46688 26.5821C7.18563 26.244 7.78264 25.6922 8.17648 25.0022C8.57031 24.3121 8.74179 23.5173 8.66753 22.7261L8.68747 22.745C8.63167 22.0837 8.7208 21.4181 8.94864 20.7948C9.17647 20.1715 9.53753 19.6054 10.0066 19.1361C10.4757 18.6668 11.0415 18.3056 11.6645 18.0776C12.2875 17.8497 12.9527 17.7605 13.6137 17.8163Z" fill="#1D2130"/>
<path d="M6.58015 15.709C6.97793 15.3087 7.28247 14.8255 7.47205 14.2939C7.66163 13.7623 7.73156 13.1954 7.67686 12.6336L7.6968 12.6525C7.64096 11.9909 7.73013 11.3252 7.95809 10.7017C8.18605 10.0782 8.54729 9.51202 9.0166 9.04268C9.48591 8.57334 10.052 8.21216 10.6752 7.98435C11.2985 7.75655 11.964 7.66762 12.6252 7.72377L12.6052 7.70487C13.3957 7.77896 14.1898 7.6073 14.8792 7.2133C15.5686 6.8193 16.1198 6.22214 16.4575 5.50326C16.7953 4.78437 16.9032 3.97875 16.7665 3.19626C16.6299 2.41378 16.2553 1.69251 15.6939 1.13082C15.1325 0.569133 14.4115 0.194368 13.6294 0.0576327C12.8473 -0.0791023 12.0421 0.028849 11.3236 0.366764C10.605 0.704679 10.0082 1.25611 9.61437 1.94585C9.22057 2.6356 9.049 3.43009 9.12305 4.22097L9.10416 4.20207C9.15996 4.86341 9.07083 5.52897 8.84299 6.1523C8.61516 6.77562 8.2541 7.34169 7.78503 7.81099C7.31596 8.28029 6.75017 8.64152 6.12715 8.86947C5.50413 9.09742 4.8389 9.18659 4.17789 9.13077L4.19677 9.14967C3.55089 9.09172 2.90084 9.19782 2.30685 9.45814C1.71286 9.71845 1.19416 10.1246 0.79881 10.6388C0.403458 11.1531 0.144249 11.7589 0.0452039 12.4001C-0.0538415 13.0413 0.0104804 13.6971 0.23221 14.3068C0.453939 14.9165 0.825902 15.4603 1.31363 15.8879C1.80136 16.3154 2.38907 16.6129 3.0223 16.7528C3.65553 16.8926 4.3138 16.8703 4.9361 16.6878C5.55841 16.5053 6.12461 16.1687 6.58225 15.709H6.58015Z" fill="#1D2130"/>
<path d="M39.09 5.23629H42.2069V20.4119H39.09V5.23629Z" fill="#1D2130"/>
<path d="M43.9722 15.2155C43.9678 14.1249 44.2871 13.0576 44.8895 12.1487C45.4919 11.2398 46.3504 10.5302 47.3562 10.1098C48.362 9.68946 49.4699 9.57721 50.5395 9.78729C51.6092 9.99738 52.5924 10.5203 53.3647 11.29C54.1371 12.0596 54.6637 13.0412 54.878 14.1105C55.0923 15.1798 54.9845 16.2887 54.5684 17.2967C54.1522 18.3047 53.4465 19.1664 52.5404 19.7728C51.6344 20.3791 50.5689 20.7028 49.4788 20.7028C48.7553 20.7111 48.0373 20.5749 47.3669 20.3024C46.6965 20.0298 46.0872 19.6263 45.5745 19.1154C45.0618 18.6045 44.656 17.9964 44.3809 17.3268C44.1058 16.6572 43.9668 15.9395 43.9722 15.2155ZM51.8685 15.2155C51.8555 14.7454 51.7043 14.2896 51.4338 13.905C51.1632 13.5205 50.7854 13.2242 50.3475 13.0533C49.9096 12.8824 49.4311 12.8444 48.9718 12.9441C48.5124 13.0439 48.0927 13.2768 47.7649 13.6139C47.4372 13.951 47.2161 14.3773 47.1292 14.8395C47.0423 15.3016 47.0935 15.7791 47.2764 16.2124C47.4593 16.6456 47.7657 17.0152 48.1575 17.2751C48.5492 17.535 49.0088 17.6736 49.4788 17.6736C49.8007 17.6822 50.1209 17.6239 50.4192 17.5026C50.7175 17.3812 50.9874 17.1993 51.2119 16.9683C51.4365 16.7374 51.6107 16.4624 51.7237 16.1607C51.8367 15.859 51.886 15.5372 51.8685 15.2155Z" fill="#1D2130"/>
<path d="M67.4082 10.018V19.888C67.4082 23.3803 64.6858 24.8566 61.9225 24.8566C60.9496 24.9295 59.9754 24.7328 59.1068 24.2883C58.2382 23.8438 57.5087 23.1685 56.9983 22.3366L59.6577 20.7984C59.8722 21.232 60.214 21.5898 60.6373 21.8238C61.0606 22.0578 61.5453 22.1568 62.0264 22.1077C62.3339 22.1503 62.647 22.1232 62.9427 22.0284C63.2383 21.9336 63.5088 21.7735 63.7342 21.56C63.9596 21.3465 64.1342 21.085 64.2449 20.7948C64.3557 20.5047 64.3998 20.1933 64.3741 19.8838V18.9336C64.0091 19.3804 63.5445 19.7354 63.0176 19.97C62.4907 20.2047 61.9161 20.3126 61.34 20.2849C59.9692 20.2417 58.669 19.6664 57.7146 18.681C56.7602 17.6955 56.2265 16.3772 56.2265 15.005C56.2265 13.6328 56.7602 12.3145 57.7146 11.329C58.669 10.3435 59.9692 9.76831 61.34 9.72506C61.9161 9.6974 62.4907 9.80524 63.0176 10.0399C63.5445 10.2746 64.0091 10.6296 64.3741 11.0764V10.0159L67.4082 10.018ZM64.3752 15.0066C64.3961 14.504 64.2662 14.0066 64.0023 13.5785C63.7383 13.1504 63.3523 12.8111 62.894 12.6044C62.4357 12.3976 61.926 12.3327 61.4306 12.4182C60.9351 12.5037 60.4766 12.7356 60.1139 13.084C59.7513 13.4324 59.5012 13.8814 59.3958 14.3732C59.2904 14.8651 59.3345 15.3772 59.5225 15.8437C59.7105 16.3103 60.0337 16.7099 60.4506 16.991C60.8674 17.2722 61.3589 17.4222 61.8616 17.4216C62.1891 17.4444 62.5178 17.3984 62.8264 17.2865C63.1351 17.1746 63.4169 16.9992 63.6536 16.7717C63.8904 16.5442 64.077 16.2696 64.2012 15.9656C64.3255 15.6616 64.3847 15.3349 64.3752 15.0066Z" fill="#1D2130"/>
<path d="M69.1734 15.2155C69.169 14.1249 69.4882 13.0576 70.0907 12.1487C70.6931 11.2398 71.5516 10.5302 72.5574 10.1098C73.5632 9.68946 74.6711 9.57721 75.7407 9.78729C76.8103 9.99738 77.7936 10.5203 78.5659 11.29C79.3382 12.0596 79.8649 13.0412 80.0792 14.1105C80.2934 15.1798 80.1857 16.2887 79.7695 17.2967C79.3534 18.3047 78.6476 19.1664 77.7416 19.7728C76.8356 20.3791 75.77 20.7028 74.68 20.7028C73.9564 20.7111 73.2385 20.5749 72.5681 20.3024C71.8977 20.0298 71.2884 19.6263 70.7757 19.1154C70.263 18.6045 69.8572 17.9964 69.5821 17.3268C69.307 16.6572 69.168 15.9395 69.1734 15.2155ZM77.0697 15.2155C77.0567 14.7454 76.9055 14.2896 76.6349 13.905C76.3644 13.5205 75.9866 13.2242 75.5487 13.0533C75.1108 12.8824 74.6323 12.8444 74.1729 12.9441C73.7136 13.0439 73.2938 13.2768 72.9661 13.6139C72.6384 13.951 72.4172 14.3773 72.3303 14.8395C72.2435 15.3016 72.2946 15.7791 72.4775 16.2124C72.6604 16.6456 72.9669 17.0152 73.3586 17.2751C73.7504 17.535 74.21 17.6736 74.68 17.6736C75.0019 17.6822 75.3221 17.6239 75.6204 17.5026C75.9187 17.3812 76.1886 17.1993 76.4131 16.9683C76.6376 16.7374 76.8119 16.4624 76.9249 16.1607C77.0379 15.859 77.0872 15.5372 77.0697 15.2155Z" fill="#1D2130"/>
<path d="M81.6402 7.23235C81.6402 6.86228 81.7499 6.50052 81.9554 6.19282C82.1609 5.88512 82.4529 5.64529 82.7947 5.50367C83.1364 5.36205 83.5124 5.325 83.8752 5.3972C84.238 5.46939 84.5712 5.6476 84.8328 5.90928C85.0943 6.17096 85.2724 6.50435 85.3446 6.86731C85.4167 7.23027 85.3797 7.60649 85.2382 7.94838C85.0966 8.29028 84.8569 8.58251 84.5494 8.78811C84.2418 8.99371 83.8802 9.10345 83.5103 9.10345C83.0159 9.09852 82.543 8.89981 82.1934 8.54997C81.8437 8.20013 81.6451 7.72707 81.6402 7.23235ZM81.955 10.018H85.073V20.413H81.9508L81.955 10.018Z" fill="#1D2130"/>
<path d="M98.5317 15.2155C98.5677 15.9025 98.4676 16.5898 98.2372 17.238C98.0068 17.8862 97.6506 18.4824 97.1891 18.9923C96.7275 19.5023 96.1698 19.9159 95.548 20.2095C94.9261 20.503 94.2524 20.6707 93.5655 20.7028C92.9879 20.7343 92.4105 20.6369 91.8752 20.4175C91.3399 20.1981 90.8601 19.8623 90.4706 19.4344V24.5699H87.3536V10.018H90.4706V10.9945C90.8603 10.5669 91.3401 10.2314 91.8754 10.0122C92.4107 9.79299 92.988 9.69562 93.5655 9.72714C94.2525 9.75913 94.9264 9.92673 95.5484 10.2203C96.1704 10.5139 96.7282 10.9276 97.1898 11.4377C97.6513 11.9478 98.0075 12.5442 98.2378 13.1925C98.4681 13.8409 98.568 14.5284 98.5317 15.2155ZM95.4147 15.2155C95.4025 14.729 95.2472 14.2569 94.9682 13.8583C94.6891 13.4597 94.2988 13.1523 93.846 12.9745C93.3932 12.7968 92.898 12.7566 92.4225 12.859C91.947 12.9615 91.5122 13.2019 91.1727 13.5503C90.8331 13.8987 90.6037 14.3396 90.5134 14.8178C90.423 15.296 90.4756 15.7902 90.6646 16.2386C90.8536 16.687 91.1705 17.0697 91.5758 17.3388C91.9811 17.6078 92.4568 17.7513 92.9432 17.7512C93.2771 17.7661 93.6104 17.7102 93.9212 17.5872C94.232 17.4641 94.5133 17.2767 94.7467 17.0373C94.9801 16.7979 95.1602 16.5118 95.2753 16.1978C95.3905 15.8839 95.438 15.5491 95.4147 15.2155Z" fill="#1D2130"/>
<path d="M108.15 17.2935C108.15 19.6843 106.073 20.7028 103.829 20.7028C102.923 20.785 102.012 20.5931 101.216 20.1521C100.42 19.7111 99.7736 19.0412 99.3618 18.229L102.062 16.6908C102.171 17.0662 102.406 17.3928 102.727 17.616C103.048 17.8392 103.435 17.9455 103.825 17.9172C104.572 17.9172 104.947 17.6883 104.947 17.2735C104.947 16.129 99.8351 16.7328 99.8351 13.1365C99.8351 10.8696 101.747 9.72717 103.908 9.72717C104.72 9.70145 105.525 9.89422 106.237 10.2854C106.95 10.6765 107.544 11.2517 107.959 11.9511L105.3 13.3854C105.183 13.1131 104.989 12.8812 104.742 12.7185C104.494 12.5559 104.204 12.4698 103.908 12.4708C103.368 12.4708 103.035 12.6808 103.035 13.0525C103.039 14.238 108.15 13.4473 108.15 17.2935Z" fill="#1D2130"/>
<path d="M119.536 10.018V20.413H116.419V19.4355C116.059 19.8668 115.603 20.2067 115.087 20.4272C114.57 20.6477 114.009 20.7425 113.449 20.7039C111.35 20.7039 109.566 19.2076 109.566 16.3989V10.018H112.683V15.9421C112.657 16.1897 112.685 16.44 112.765 16.6756C112.846 16.9111 112.977 17.1264 113.149 17.3063C113.321 17.4861 113.53 17.6264 113.761 17.7172C113.993 17.808 114.242 17.8472 114.49 17.8321C115.633 17.8321 116.422 17.1675 116.422 15.6912V10.0212L119.536 10.018Z" fill="#1D2130"/>
<path d="M137.409 14.0301V20.412H134.292V14.3C134.292 13.2605 133.793 12.5958 132.796 12.5958C131.757 12.5958 131.175 13.3235 131.175 14.5499V20.412H128.059V14.3C128.059 13.2605 127.56 12.5958 126.562 12.5958C125.523 12.5958 124.942 13.3235 124.942 14.5499V20.412H121.825V10.017H124.942V10.9725C125.265 10.5486 125.689 10.2124 126.176 9.99473C126.662 9.77701 127.195 9.68468 127.726 9.72616C128.26 9.70006 128.791 9.81266 129.268 10.053C129.744 10.2933 130.151 10.6532 130.448 11.0975C130.793 10.6327 131.251 10.2631 131.777 10.0232C132.304 9.78342 132.883 9.68121 133.461 9.72616C135.846 9.72721 137.409 11.4314 137.409 14.0301Z" fill="#1D2130"/>
<path d="M140.045 9.95398C141.323 9.95398 142.358 8.91788 142.358 7.63979C142.358 6.36169 141.323 5.32559 140.045 5.32559C138.768 5.32559 137.732 6.36169 137.732 7.63979C137.732 8.91788 138.768 9.95398 140.045 9.95398Z" fill="#1D2130"/>
</g>
</svg>
