<svg width="78" height="80" viewBox="0 0 78 80" fill="none" xmlns="http://www.w3.org/2000/svg">
<path d="M68.3063 25.5872C68.9639 26.57 69.5951 27.7824 69.2847 29.0816C68.2135 28.4685 67.3519 27.4675 66.6687 26.4792C65.9807 25.4844 65.2663 24.4264 65.0215 23.2002C66.3727 23.5458 67.5823 24.5052 68.3063 25.5872Z" fill="#8B888A"/>
<path d="M10.2313 29.0793C9.92175 27.7798 10.5542 26.5679 11.213 25.5857C11.9382 24.5043 13.1482 23.5458 14.4996 23.2012C14.2541 24.4272 13.5385 25.4847 12.8498 26.4789C12.1657 27.4667 11.3029 28.4671 10.2313 29.0793Z" fill="#8B888A"/>
<path d="M9.28787 31.5722C9.52955 30.5431 9.52419 29.4165 9.29411 28.4512C9.09179 27.6029 8.79739 26.4037 7.82843 25.999C7.12411 27.1288 6.84099 28.6673 7.25147 29.8201C7.54827 30.6539 8.08203 31.7564 9.18899 31.927C10.2048 32.1612 11.2319 31.6193 12.0431 31.172C12.9451 30.6746 13.8286 29.8833 14.3654 28.9426C13.3807 28.4456 12.2592 28.8489 11.4156 29.2355C10.5061 29.6522 9.67067 30.5463 9.28787 31.5722Z" fill="#8B888A"/>
<path d="M29.0011 32.5609V27.394H27.2371V29.2765H24.5911V27.394H22.8271V32.5609H24.5911V30.6851H27.2371V32.5609H29.0011Z" fill="#8B888A"/>
<path d="M34.8505 27.394H36.7987L34.0343 30.8562V32.5609H32.2637V30.8628L29.5322 27.394H31.5397L33.1721 29.4608L34.8505 27.394Z" fill="#8B888A"/>
<path fill-rule="evenodd" clip-rule="evenodd" d="M42.9424 27.835C43.2913 28.1115 43.4887 28.5788 43.4887 29.2568C43.4887 29.8096 43.3505 30.2243 43.0872 30.514C42.7317 30.922 42.146 31.1063 41.3825 31.1129C41.1455 31.1195 39.1182 31.1129 39.1182 31.1129V32.5609H37.3477V27.394H41.3561C42.0669 27.394 42.6067 27.5388 42.9424 27.835ZM41.6325 29.6583C41.6853 29.5661 41.7116 29.4476 41.7116 29.2831C41.7116 29.112 41.6786 28.9672 41.6194 28.8882C41.5075 28.7236 41.2969 28.6446 40.9546 28.6446H39.1051V29.9084H40.9414C41.3101 29.9084 41.5273 29.8228 41.6325 29.6583Z" fill="#8B888A"/>
<path d="M49.6365 31.2774V32.5609H44.1934V27.394H49.5909V28.6841H45.931V29.3489H49.4853V30.606H45.931V31.2774H49.6365Z" fill="#8B888A"/>
<path fill-rule="evenodd" clip-rule="evenodd" d="M56.2447 27.9206C56.4823 28.1641 56.5935 28.4998 56.5935 28.9672C56.5935 29.3687 56.4951 29.7109 56.3303 29.9413C56.1463 30.1914 55.8631 30.402 55.5143 30.4547L57.0743 32.5609H55.1127L53.8295 30.7377H52.2303V32.5609H50.4727V27.394H54.5863C55.4023 27.394 55.9359 27.5915 56.2447 27.9206ZM54.8231 29.4016C54.8695 29.3226 54.8823 29.2172 54.8823 29.1317C54.8823 29.033 54.8695 28.9276 54.8231 28.8618C54.7311 28.6907 54.5471 28.6446 54.2703 28.6446H52.2367V29.5859H54.3031C54.5863 29.5859 54.7575 29.5332 54.8231 29.4016Z" fill="#8B888A"/>
<path d="M48.6941 39.0414C48.6941 37.8603 47.9438 37.2396 46.1937 37.0499C45.9092 37.0154 45.073 36.9292 44.547 36.8861C43.1935 36.7395 42.7884 36.662 42.7884 36.3171C42.7884 36.0068 43.1074 35.8602 44.3229 35.8602C45.185 35.8602 45.6678 36.024 45.8574 36.274C45.9523 36.3947 45.9868 36.4895 45.9954 36.5844H48.4783C48.4524 36.3774 48.3662 36.0843 48.2282 35.8258C47.78 34.9636 46.7023 34.2739 44.3833 34.2739C41.771 34.2739 40.34 35.1964 40.34 36.4034C40.34 37.5672 41.1503 38.2482 43.3401 38.4466C43.5877 38.4678 44.1194 38.518 44.5548 38.5591L44.5817 38.5617L44.5866 38.5622L44.5885 38.5623L44.823 38.5845C45.9695 38.7052 46.2799 38.7827 46.2799 39.1449C46.2799 39.481 45.9782 39.6621 44.7109 39.6621C43.7281 39.6621 43.1505 39.5155 42.9435 39.2655C42.8574 39.1621 42.797 39.0069 42.7798 38.9034H40.2969C40.3227 39.0758 40.3658 39.3518 40.4606 39.5759C40.8831 40.5242 41.9866 41.2484 44.547 41.2484C47.2972 41.2484 48.6941 40.4725 48.6941 39.0414Z" fill="#8B888A"/>
<path fill-rule="evenodd" clip-rule="evenodd" d="M31.0921 40.4554C31.3508 40.1536 31.48 39.6966 31.48 39.2311C31.48 38.8346 31.3766 38.4552 31.1611 38.2052C30.9024 37.869 30.4455 37.6276 29.9628 37.5673C30.2904 37.5242 30.6007 37.3518 30.7817 37.1276C31.0059 36.8603 31.1093 36.4982 31.1093 36.0586C31.1093 35.6189 30.98 35.231 30.6869 34.9378C30.3593 34.6016 29.7644 34.3774 28.8334 34.3774H22.9883V41.145H28.9972C29.9541 41.145 30.6956 40.9381 31.0921 40.4554ZM28.7127 36.4638C28.7127 36.6276 28.6609 36.7655 28.5748 36.8603C28.454 36.9724 28.2299 37.0155 27.9368 37.0155H25.247V35.912H27.8764C28.204 35.912 28.4282 35.9551 28.5488 36.0672C28.6609 36.162 28.7127 36.2999 28.7127 36.4638ZM28.9713 39.4294C28.8334 39.5587 28.592 39.6105 28.1868 39.6105H25.247V38.4811H28.2127C28.592 38.4811 28.8161 38.5328 28.9454 38.6449C29.0489 38.7483 29.092 38.8777 29.092 39.0501C29.092 39.2139 29.0575 39.3432 28.9713 39.4294Z" fill="#8B888A"/>
<path d="M39.5974 39.4639V41.145H32.4678V34.3774H39.5371V36.0672H34.7437V36.9379H39.3991V38.5846H34.7437V39.4639H39.5974Z" fill="#8B888A"/>
<path d="M57.0825 36.0758V34.3774H49.0049V36.0758H51.8585V41.145H54.2201V36.0758H57.0825Z" fill="#8B888A"/>
<path d="M56.878 47.1336H56.498L56.4708 46.7677C56.3548 46.9529 56.1092 47.1752 55.5908 47.1752C54.7148 47.1752 54.3076 46.6472 54.3076 45.2991C54.3076 44.2569 54.5668 43.4185 55.6364 43.4185C56.5636 43.4185 56.846 44.0253 56.8596 44.6785H56.3964C56.3828 44.2523 56.1924 43.8585 55.646 43.8585C54.9884 43.8585 54.798 44.2523 54.798 45.3131C54.798 46.4202 55.0348 46.7677 55.6556 46.7677C56.0908 46.7677 56.3452 46.5268 56.4292 46.2396V45.5493H55.4932V45.1277H56.8732V46.1933C56.8732 46.5116 56.8764 46.8513 56.8772 47.0221L56.878 47.1034V47.1336Z" fill="#8B888A"/>
<path fill-rule="evenodd" clip-rule="evenodd" d="M23.0759 46.2117H24.373L24.6416 47.1336H25.1326L24.0579 43.4648H23.4604L22.3115 47.1336H22.7979L23.0759 46.2117ZM24.2571 45.7995H23.201C23.201 45.7995 23.6595 44.3172 23.6688 44.2848C23.6734 44.2616 23.7476 43.9327 23.7476 43.9327L23.7989 44.176L23.8217 44.2848C23.8263 44.3079 24.2571 45.7995 24.2571 45.7995Z" fill="#8B888A"/>
<path d="M28.6488 43.4648H29.0935L28.2273 47.1336H27.676C27.676 47.1336 27.0599 44.2801 27.0599 44.1596C27.0552 44.2801 26.4253 47.1336 26.4253 47.1336H25.874L25.0078 43.4648H25.5081C25.5081 43.4648 26.1797 46.3692 26.1797 46.4851C26.1797 46.3692 26.7959 43.4648 26.7959 43.4648H27.3471C27.3471 43.4648 27.9632 46.3739 27.9632 46.4851C27.9632 46.3739 28.6488 43.4648 28.6488 43.4648Z" fill="#8B888A"/>
<path fill-rule="evenodd" clip-rule="evenodd" d="M30.995 46.2117H29.6979L29.42 47.1336H28.9336L30.0824 43.4648H30.68L31.7547 47.1336H31.2637L30.995 46.2117ZM29.823 45.7995H30.8792C30.8792 45.7995 30.4484 44.3079 30.4438 44.2848L30.4087 44.1178L30.3696 43.9327C30.3696 43.9327 30.2955 44.2616 30.2909 44.2848C30.2816 44.3172 29.823 45.7995 29.823 45.7995Z" fill="#8B888A"/>
<path fill-rule="evenodd" clip-rule="evenodd" d="M33.5403 43.4648C34.1054 43.4648 34.4111 43.7288 34.4111 44.4978C34.4111 45.151 34.1656 45.3687 33.9108 45.4428L34.615 47.1336H34.1054L33.4523 45.5355H32.5629V47.1336H32.0996V43.4648H33.5403ZM33.4708 45.1185C33.8367 45.1185 33.9247 44.9286 33.9247 44.5117C33.9247 44.0392 33.7858 43.8956 33.4476 43.8956H32.5674V45.1185H33.4708Z" fill="#8B888A"/>
<path fill-rule="evenodd" clip-rule="evenodd" d="M37.4948 45.239C37.4948 46.1052 37.43 46.4572 37.2448 46.7213C37.0595 46.9761 36.7676 47.1336 36.2951 47.1336H35.0352V43.4648H36.2627C36.726 43.4648 37.0872 43.6038 37.254 43.854C37.4393 44.1226 37.4948 44.4561 37.4948 45.239ZM36.1979 46.6981C36.4804 46.6981 36.7167 46.624 36.8371 46.4619C36.9668 46.2859 37.0039 45.9292 37.0039 45.239C37.0039 44.66 36.9714 44.3496 36.8371 44.1504C36.712 43.979 36.4712 43.9048 36.1886 43.9048H35.503V46.6981H36.1979Z" fill="#8B888A"/>
<path d="M42.3822 43.4648H42.8269L41.9607 47.1336H41.4094C41.4094 47.1336 40.7933 44.2801 40.7933 44.1596C40.7887 44.2801 40.1587 47.1336 40.1587 47.1336H39.6075L38.7412 43.4648H39.2415C39.2415 43.4648 39.9131 46.3692 39.9131 46.4851C39.9131 46.3692 40.5292 43.4648 40.5292 43.4648H41.0805C41.0805 43.4648 41.6966 46.3739 41.6966 46.4851C41.6966 46.3739 42.3822 43.4648 42.3822 43.4648Z" fill="#8B888A"/>
<path d="M43.6458 43.4648V47.1336H43.1641V43.4648H43.6458Z" fill="#8B888A"/>
<path d="M46.6621 43.4648V47.1336H46.1294L44.7628 44.2893V47.1336H44.3135V43.4648H44.874L46.2081 46.2673V43.4648H46.6621Z" fill="#8B888A"/>
<path d="M49.6659 43.4648V47.1336H49.1331L47.7667 44.2893V47.1336H47.3174V43.4648H47.8779L49.2123 46.2673V43.4648H49.6659Z" fill="#8B888A"/>
<path d="M50.8029 43.4648V47.1336H50.3213V43.4648H50.8029Z" fill="#8B888A"/>
<path d="M53.8185 43.4648V47.1336H53.2857L51.9193 44.2893V47.1336H51.4697V43.4648H52.0305L53.3649 46.2673V43.4648H53.8185Z" fill="#8B888A"/>
<path d="M28.2912 54.3642L27.7604 52.7305L27.2295 54.3642H25.5117L26.9014 55.374L26.3706 57.0078L27.7604 55.998L29.1501 57.0078L28.6192 55.374L30.009 54.3642H28.2912Z" fill="#8B888A"/>
<path d="M34.43 54.3647L33.8883 52.731L33.3466 54.3647H31.5938L33.0119 55.3744L32.4702 57.0082L33.8883 55.9985L35.3065 57.0082L34.7648 55.3744L36.1829 54.3647H34.43Z" fill="#8B888A"/>
<path d="M40.5101 54.3647L39.9684 52.731L39.4267 54.3647H37.6738L39.0919 55.3744L38.5502 57.0082L39.9684 55.9985L41.3865 57.0082L40.8448 55.3744L42.263 54.3647H40.5101Z" fill="#8B888A"/>
<path d="M46.5892 54.3647L46.0475 52.731L45.5058 54.3647H43.7529L45.171 55.3744L44.6293 57.0082L46.0475 55.9985L47.4656 57.0082L46.9239 55.3744L48.342 54.3647H46.5892Z" fill="#8B888A"/>
<path d="M52.7069 54.3647L52.1765 52.731L51.6453 54.3647H49.9277L51.3173 55.3744L50.7869 57.0082L52.1765 55.9985L53.5661 57.0082L53.0349 55.3744L54.4253 54.3647H52.7069Z" fill="#8B888A"/>
<path d="M6.16033 34.3491C6.65985 35.1112 7.43281 36.0657 8.55985 36.0385C9.58473 36.0897 10.4702 35.3903 11.1674 34.8065C11.9184 34.1778 12.5962 33.2584 12.8824 32.2644C11.8342 31.9594 10.8306 32.5244 10.0822 33.0572C9.30065 33.6138 8.69961 34.6324 8.57049 35.6782C8.56081 34.6304 8.27721 33.5483 7.82001 32.6765C7.40201 31.8796 6.81953 30.8023 5.78033 30.5869C5.37089 31.827 5.50153 33.3443 6.16033 34.3491Z" fill="#8B888A"/>
<path d="M8.89303 40.1431C7.84703 40.3184 6.82671 39.6775 6.16407 38.9237C5.31095 37.9531 4.80335 36.6511 4.90687 35.3477C5.98143 35.3749 6.79527 36.3038 7.39679 37.0062C8.04463 37.7627 8.57543 38.758 8.83007 39.7847C8.71807 38.7615 9.06159 37.6566 9.69927 36.9739C10.3148 36.3149 11.177 35.5966 12.2498 35.7119C12.2267 36.7494 11.7066 37.7379 11.1702 38.4782C10.6702 39.1681 9.89999 40.0215 8.89303 40.1431Z" fill="#8B888A"/>
<path d="M6.96096 43.5908C7.92432 44.218 9.09272 44.8388 10.3206 44.369C11.328 44.0126 11.9685 42.9986 12.3624 42.0679C12.7797 41.0817 13.0584 39.9446 12.8654 38.8652C11.7585 38.9635 10.8406 39.7555 10.353 40.7223C9.84337 41.733 9.7456 42.936 10.1371 43.9957C9.55864 42.9056 8.71265 42.0235 7.81649 41.2084C7.00185 40.4676 5.8284 39.6871 4.64648 39.8339C4.87136 41.2951 5.76304 42.811 6.96096 43.5908Z" fill="#8B888A"/>
<path d="M12.8025 48.3191C13.7505 47.7524 14.132 46.5599 14.2879 45.5381C14.456 44.4361 14.4488 43.2207 13.9911 42.1753C12.8913 42.4825 12.1363 43.4724 11.887 44.5567C11.6237 45.7022 11.8459 46.923 12.4865 47.8984C11.6349 46.9214 10.5025 46.1147 9.41734 45.549C8.3691 45.0026 7.0831 44.3435 5.82422 44.7415C6.43126 46.2231 7.72982 47.6024 9.16902 48.173C10.2836 48.6147 11.6395 49.0516 12.8025 48.3191Z" fill="#8B888A"/>
<path d="M17.2962 48.7025C17.4353 49.7662 17.4314 51.1153 16.6055 51.934C15.5735 52.9903 13.9764 52.7865 12.7446 52.5541C11.0908 52.2419 9.22921 51.1139 8.23145 49.6121C9.45001 48.9411 10.9403 49.3703 12.1467 49.7178L12.2156 49.7375C13.5622 50.125 14.9973 50.749 16.1974 51.6016C15.2397 50.7362 14.5418 49.4659 14.5077 48.1856C14.477 47.0405 14.974 45.8154 16.0436 45.2695C16.7903 46.2496 17.14 47.5079 17.2962 48.7025Z" fill="#8B888A"/>
<path d="M22.089 54.9459C22.6972 53.7882 22.0946 52.4295 21.6144 51.4253C21.0468 50.2381 20.2712 49.0281 19.1612 48.1592C18.0953 49.0777 18.1967 50.3921 18.5136 51.5343C18.8904 52.8925 20.1967 54.0502 21.5494 54.71C19.9828 54.1257 18.2718 53.7751 16.644 53.6716L16.4791 53.6609C15.1713 53.5757 13.4688 53.4649 12.4268 54.4219C14.0024 55.7613 16.2404 56.5341 18.2128 56.494C19.5347 56.4671 21.3483 56.3107 22.089 54.9459Z" fill="#8B888A"/>
<path d="M70.2256 31.5758C69.844 30.5492 69.0088 29.654 68.1 29.2364C67.256 28.8492 66.1352 28.4452 65.1504 28.9413C65.6864 29.8824 66.5688 30.6744 67.4704 31.1724C68.2808 31.6203 69.3072 32.1628 70.3232 31.9296C71.4304 31.76 71.9656 30.6578 72.2632 29.824C72.6752 28.6717 72.3936 27.1329 71.6904 26.0024C70.7208 26.4065 70.4248 27.6054 70.2224 28.4536C69.9912 29.4192 69.9848 30.5462 70.2256 31.5758Z" fill="#8B888A"/>
<path d="M69.4301 33.0597C70.2109 33.6165 70.8101 34.6345 70.9389 35.6796C70.9501 34.6324 71.2349 33.5513 71.6925 32.6804C72.1109 31.8837 72.6949 30.8069 73.7341 30.5923C74.1421 31.8328 74.0101 33.35 73.3501 34.3542C72.8509 35.1149 72.0781 36.0675 70.9533 36.042C69.9269 36.0944 69.0405 35.3932 68.3429 34.8083C67.5925 34.1789 66.9157 33.259 66.6309 32.2648C67.6789 31.9605 68.6821 32.5263 69.4301 33.0597Z" fill="#8B888A"/>
<path d="M70.674 39.7914C70.7884 38.7674 70.446 37.6602 69.8076 36.9761C69.1932 36.3166 68.3316 35.5977 67.2588 35.7122C67.2804 36.7497 67.7996 37.7386 68.3356 38.4794C68.8348 39.1694 69.6036 40.0227 70.61 40.1457C71.6564 40.3229 72.678 39.6823 73.342 38.9286C74.1956 37.9587 74.7044 36.6571 74.6028 35.3535C73.5276 35.3801 72.7132 36.3082 72.1108 37.0102C71.4612 37.7671 70.9292 38.7635 70.674 39.7914Z" fill="#8B888A"/>
<path d="M69.1509 40.7242C69.6597 41.7355 69.7565 42.9388 69.3637 43.9981C69.9429 42.9081 70.7901 42.0266 71.6869 41.2121C72.5021 40.4718 73.6765 39.6924 74.8581 39.84C74.6325 41.3011 73.7389 42.8164 72.5405 43.5952C71.5773 44.2208 70.4101 44.8404 69.1837 44.3724C68.1749 44.0167 67.5341 43.0006 67.1405 42.0683C66.7237 41.0818 66.4461 39.9445 66.6405 38.8652C67.7469 38.9644 68.6645 39.7571 69.1509 40.7242Z" fill="#8B888A"/>
<path d="M67.0132 47.8963C67.6532 46.9219 67.8764 45.7022 67.6148 44.5573C67.3668 43.4728 66.6124 42.4823 65.5124 42.1743C65.054 43.2193 65.046 44.4346 65.2124 45.5368C65.3676 46.5566 65.7468 47.7467 66.6892 48.3155C67.8532 49.0538 69.2124 48.6171 70.3284 48.1755C71.7684 47.606 73.0684 46.2276 73.6764 44.7464C72.418 44.3476 71.1316 45.0057 70.0828 45.5513C68.998 46.1158 67.8652 46.9209 67.0132 47.8963Z" fill="#8B888A"/>
<path d="M62.2001 48.6992C62.0601 49.7627 62.0625 51.1117 62.8881 51.9312C63.9185 52.9883 65.5161 52.7856 66.7481 52.554C68.4025 52.243 70.2649 51.1163 71.2641 49.6153C70.0465 48.9436 68.5553 49.3715 67.3489 49.718L67.2793 49.7378C65.9329 50.1241 64.4977 50.7468 63.2969 51.5981C64.2553 50.7334 64.9537 49.4642 64.9889 48.1844C65.0209 47.0393 64.5249 45.8138 63.4561 45.2671C62.7081 46.2466 62.3577 47.5048 62.2001 48.6992Z" fill="#8B888A"/>
<path d="M61.2757 56.4901C59.9541 56.4622 58.1405 56.3045 57.4013 54.9391L57.3909 54.9204C56.8005 53.7662 57.4005 52.4173 57.8789 51.4189C58.4477 50.2321 59.2245 49.0228 60.3349 48.1548C61.4005 49.0741 61.2973 50.3883 60.9797 51.5302C60.6013 52.8881 59.2941 54.0451 57.9405 54.7037C59.5077 54.1207 61.2189 53.7713 62.8469 53.6689L63.0125 53.6584C64.3205 53.5742 66.0229 53.4648 67.0637 54.4224C65.4869 55.7605 63.2485 56.5317 61.2757 56.4901Z" fill="#8B888A"/>
</svg>
