<svg width="124" height="25" viewBox="0 0 124 25" fill="none" xmlns="http://www.w3.org/2000/svg">
<g opacity="0.6">
<path d="M39.7015 19.9728C39.0773 20.0064 38.4598 19.8305 37.9489 19.4736C37.7353 19.3168 37.5635 19.1108 37.4484 18.8734C37.3332 18.6361 37.278 18.3745 37.2877 18.1112V8.47045C37.2826 8.42963 37.2869 8.3882 37.3004 8.3493C37.3139 8.31041 37.3362 8.27507 37.3655 8.24599C37.3949 8.21691 37.4305 8.19484 37.4698 8.18147C37.509 8.16811 37.5508 8.16379 37.592 8.16885H39.3551C39.5545 8.16885 39.649 8.27285 39.649 8.47045V17.3624C39.649 17.7576 39.8274 17.9552 40.1947 17.9552C40.3504 17.9616 40.5062 17.9441 40.6565 17.9032C40.8664 17.9032 40.9818 17.9656 40.9923 18.1528L41.1497 19.4528C41.1573 19.4907 41.1566 19.5298 41.1476 19.5674C41.1387 19.605 41.1217 19.6403 41.0978 19.6708C41.074 19.7014 41.0438 19.7265 41.0093 19.7445C40.9748 19.7625 40.9368 19.773 40.8979 19.7752C40.5117 19.9017 40.1081 19.9683 39.7015 19.9728Z" fill="#1D2130"/>
<path d="M49.619 18.8601C48.733 19.5855 47.6198 19.9823 46.4706 19.9823C45.3214 19.9823 44.2081 19.5855 43.3221 18.8601C42.5435 18.0811 42.1066 17.029 42.1066 15.9325C42.1066 14.836 42.5435 13.7839 43.3221 13.0049C44.2098 12.2833 45.3224 11.8889 46.4706 11.8889C47.6187 11.8889 48.7313 12.2833 49.619 13.0049C50.3797 13.7911 50.8044 14.8381 50.8044 15.9273C50.8044 17.0165 50.3797 18.0635 49.619 18.8497V18.8601ZM44.9803 17.4873C45.3914 17.8564 45.9263 18.0608 46.481 18.0608C47.0358 18.0608 47.5707 17.8564 47.9818 17.4873C48.3539 17.0633 48.5588 16.5204 48.5588 15.9585C48.5588 15.3966 48.3539 14.8537 47.9818 14.4297C47.5707 14.0606 47.0358 13.8563 46.481 13.8563C45.9263 13.8563 45.3914 14.0606 44.9803 14.4297C44.6082 14.8537 44.4033 15.3966 44.4033 15.9585C44.4033 16.5204 44.6082 17.0633 44.9803 17.4873Z" fill="#1D2130"/>
<path d="M60.5125 12.152C60.7119 12.152 60.8063 12.256 60.8063 12.4536V19.9104C60.8247 20.4137 60.7296 20.9147 60.5281 21.3771C60.3266 21.8394 60.0237 22.2514 59.6414 22.5833C58.7928 23.3003 57.7015 23.6719 56.5875 23.6233C55.5812 23.6583 54.5883 23.386 53.7434 22.8433C53.3826 22.6085 53.0744 22.3027 52.8379 21.9448C52.6014 21.587 52.4416 21.1848 52.3686 20.7633C52.3686 20.5553 52.3686 20.4617 52.6519 20.4617H54.4151C54.4899 20.4642 54.5624 20.4881 54.6239 20.5305C54.6853 20.573 54.7331 20.6321 54.7614 20.7008C54.8757 21.0167 55.1037 21.2796 55.4016 21.4392C55.7646 21.6249 56.1686 21.7178 56.577 21.7097C56.8234 21.723 57.07 21.6876 57.3025 21.6055C57.5349 21.5233 57.7485 21.3961 57.9308 21.2312C58.0973 21.0588 58.2268 20.8547 58.3116 20.6313C58.3964 20.4078 58.4346 20.1697 58.424 19.9312V19.2761C57.7928 19.7362 57.0245 19.9741 56.2411 19.952C55.6929 19.9718 55.1463 19.8816 54.6341 19.6868C54.1219 19.492 53.6548 19.1966 53.2606 18.8184C52.504 18.0427 52.0811 17.0061 52.0811 15.9272C52.0811 14.8484 52.504 13.8118 53.2606 13.036C53.6567 12.6612 54.1244 12.3687 54.6363 12.1758C55.1482 11.9829 55.6938 11.8935 56.2411 11.9128C57.0471 11.8918 57.8361 12.145 58.4765 12.6305V12.464C58.4717 12.4242 58.4759 12.3838 58.4888 12.3457C58.5017 12.3077 58.523 12.273 58.5511 12.2441C58.5793 12.2152 58.6135 12.1929 58.6515 12.1788C58.6894 12.1647 58.73 12.1591 58.7704 12.1624L60.5125 12.152ZM56.4405 18.1008C56.7109 18.1091 56.9798 18.0585 57.2283 17.9525C57.4767 17.8464 57.6986 17.6876 57.8783 17.4872C58.2272 17.0407 58.4165 16.492 58.4165 15.9272C58.4165 15.3625 58.2272 14.8138 57.8783 14.3672C57.6992 14.1696 57.4787 14.0132 57.2321 13.9089C56.9855 13.8047 56.7189 13.7553 56.451 13.764C56.1775 13.7555 55.9054 13.806 55.6536 13.9119C55.4017 14.0179 55.1761 14.1768 54.9923 14.3776C54.6057 14.8048 54.4024 15.3644 54.4255 15.9376C54.4066 16.5053 54.6054 17.059 54.9818 17.4872C55.166 17.6876 55.3917 17.8461 55.6435 17.952C55.8953 18.0579 56.1671 18.1087 56.4405 18.1008Z" fill="#1D2130"/>
<path d="M69.8632 18.86C68.9756 19.5817 67.863 19.9761 66.7148 19.9761C65.5667 19.9761 64.4541 19.5817 63.5664 18.86C62.805 18.0722 62.38 17.0234 62.38 15.9324C62.38 14.8415 62.805 13.7927 63.5664 13.0048C64.4549 12.2851 65.5672 11.8919 66.7148 11.8919C67.8624 11.8919 68.9747 12.2851 69.8632 13.0048C70.6239 13.791 71.0487 14.8381 71.0487 15.9272C71.0487 17.0164 70.6239 18.0635 69.8632 18.8497V18.86ZM65.2141 17.4872C65.4153 17.6769 65.6524 17.8251 65.9118 17.9233C66.1713 18.0215 66.4477 18.0677 66.7253 18.0592C67.0011 18.0663 67.2756 18.0195 67.5331 17.9213C67.7907 17.8232 68.0261 17.6757 68.2261 17.4872C68.5921 17.0604 68.793 16.5186 68.793 15.9584C68.793 15.3983 68.5921 14.8565 68.2261 14.4297C68.0261 14.2412 67.7907 14.0937 67.5331 13.9956C67.2756 13.8974 67.0011 13.8506 66.7253 13.8576C66.4477 13.8492 66.1713 13.8954 65.9118 13.9936C65.6524 14.0918 65.4153 14.24 65.2141 14.4297C64.8481 14.8565 64.6471 15.3983 64.6471 15.9584C64.6471 16.5186 64.8481 17.0604 65.2141 17.4872Z" fill="#1D2130"/>
<path d="M74.8378 10.3841C74.5604 10.6247 74.2042 10.7574 73.8355 10.7574C73.4669 10.7574 73.1107 10.6247 72.8333 10.3841C72.7075 10.2665 72.6073 10.1246 72.5388 9.96723C72.4703 9.80986 72.435 9.64028 72.435 9.46889C72.435 9.2975 72.4703 9.12792 72.5388 8.97055C72.6073 8.81317 72.7075 8.67132 72.8333 8.55369C73.1136 8.31908 73.4686 8.19037 73.8355 8.19037C74.2024 8.19037 74.5575 8.31908 74.8378 8.55369C74.9636 8.67132 75.0638 8.81317 75.1322 8.97055C75.2007 9.12792 75.2361 9.2975 75.2361 9.46889C75.2361 9.64028 75.2007 9.80986 75.1322 9.96723C75.0638 10.1246 74.9636 10.2665 74.8378 10.3841ZM75.0582 19.9729C74.4343 20.0032 73.8179 19.8276 73.3055 19.4737C73.0953 19.3145 72.9265 19.1078 72.8133 18.8708C72.7001 18.6338 72.6458 18.3733 72.6549 18.1113V12.4537C72.6498 12.4129 72.6541 12.3714 72.6676 12.3325C72.6811 12.2936 72.7034 12.2583 72.7327 12.2292C72.7621 12.2002 72.7977 12.1781 72.837 12.1647C72.8762 12.1514 72.918 12.147 72.9592 12.1521H74.7223C74.9217 12.1521 75.0162 12.2561 75.0162 12.4537V17.3625C75.0162 17.7577 75.1946 17.9553 75.5514 17.9553C75.7106 17.961 75.8697 17.9434 76.0237 17.9033C76.2336 17.9033 76.349 17.9657 76.3595 18.1529L76.5169 19.4529C76.5245 19.4908 76.5238 19.5299 76.5148 19.5675C76.5059 19.6051 76.4889 19.6403 76.465 19.6709C76.4411 19.7014 76.4109 19.7266 76.3765 19.7446C76.342 19.7626 76.304 19.7731 76.2651 19.7753C75.8755 19.9024 75.4683 19.9691 75.0582 19.9729Z" fill="#1D2130"/>
<path d="M83.0028 11.9025C83.5535 11.8809 84.1029 11.9693 84.6185 12.1622C85.1341 12.3551 85.6054 12.6488 86.0042 13.0257C86.7464 13.815 87.159 14.8537 87.159 15.9325C87.159 17.0113 86.7464 18.05 86.0042 18.8393C85.6073 19.2196 85.1366 19.5161 84.6207 19.7109C84.1048 19.9058 83.5544 19.9949 83.0028 19.9729C82.2169 19.9902 81.4467 19.7529 80.8094 19.2969V23.0513C80.8094 23.2489 80.7044 23.3425 80.505 23.3425H78.7419C78.7017 23.35 78.6602 23.3476 78.6211 23.3356C78.582 23.3236 78.5465 23.3023 78.5175 23.2736C78.4886 23.245 78.4671 23.2097 78.455 23.171C78.4429 23.1323 78.4405 23.0912 78.4481 23.0513V14.5233C78.4604 14.4399 78.4529 14.3548 78.4262 14.2747C78.3994 14.1947 78.3542 14.122 78.294 14.0624C78.2338 14.0028 78.1604 13.9579 78.0797 13.9314C77.9989 13.9049 77.913 13.8975 77.8289 13.9097H77.4825C77.2516 13.9097 77.1362 13.8265 77.1362 13.6601V12.4329C77.1308 12.357 77.1517 12.2815 77.1957 12.219C77.2396 12.1566 77.3038 12.1109 77.3776 12.0897C77.7406 11.9589 78.1248 11.8955 78.511 11.9025C78.8961 11.8687 79.2827 11.9497 79.6211 12.1349C79.9595 12.3202 80.2344 12.6014 80.4106 12.9425C80.7486 12.6036 81.1528 12.3366 81.5985 12.1578C82.0442 11.979 82.522 11.8921 83.0028 11.9025ZM81.3656 17.4873C81.5527 17.6811 81.7775 17.8353 82.0264 17.9407C82.2753 18.0461 82.5432 18.1004 82.8139 18.1004C83.0845 18.1004 83.3524 18.0461 83.6013 17.9407C83.8502 17.8353 84.075 17.6811 84.2621 17.4873C84.6563 17.0516 84.8634 16.4808 84.8393 15.8961C84.8668 15.3109 84.6593 14.7388 84.2621 14.3049C84.075 14.1111 83.8502 13.9569 83.6013 13.8515C83.3524 13.7461 83.0845 13.6918 82.8139 13.6918C82.5432 13.6918 82.2753 13.7461 82.0264 13.8515C81.7775 13.9569 81.5527 14.1111 81.3656 14.3049C80.9837 14.7465 80.785 15.3151 80.8094 15.8961C80.7881 16.4767 80.9864 17.0442 81.3656 17.4873Z" fill="#1D2130"/>
<path d="M92.1121 19.9728C91.1699 20.0112 90.2358 19.7879 89.4149 19.328C89.0856 19.1315 88.8051 18.8639 88.5944 18.5452C88.3836 18.2266 88.248 17.865 88.1975 17.4872C88.1975 17.2792 88.271 17.1752 88.5019 17.1752H90.0446C90.118 17.1781 90.1892 17.2009 90.2503 17.2413C90.3114 17.2817 90.3601 17.338 90.3909 17.404C90.6113 17.9656 91.1885 18.2464 92.1121 18.2464C92.4342 18.261 92.755 18.1967 93.0461 18.0592C93.1466 18.0143 93.2328 17.9431 93.2957 17.8534C93.3585 17.7636 93.3956 17.6586 93.4029 17.5496C93.4029 17.2792 93.235 17.092 92.8992 16.9672C92.5008 16.8358 92.089 16.7486 91.6713 16.7072C91.1764 16.6517 90.6857 16.5649 90.202 16.4472C89.7317 16.3417 89.304 16.099 88.9741 15.7504C88.7799 15.5135 88.6369 15.2395 88.5541 14.9454C88.4712 14.6514 88.4503 14.3436 88.4927 14.0412C88.535 13.7389 88.6396 13.4483 88.8001 13.1877C88.9606 12.9271 89.1734 12.702 89.4254 12.5264C90.1818 12.0489 91.0694 11.8163 91.9651 11.8608C92.8324 11.8318 93.6905 12.0444 94.4419 12.4744C94.7447 12.6444 95.0055 12.8792 95.2052 13.1616C95.4049 13.4441 95.5385 13.7671 95.5963 14.1072C95.5963 14.3152 95.5019 14.4192 95.313 14.4192H93.7597C93.6943 14.4231 93.6293 14.4073 93.5731 14.3739C93.5169 14.3405 93.4723 14.291 93.4449 14.232C93.3411 13.9857 93.1457 13.7884 92.8992 13.6808C92.621 13.5366 92.3104 13.465 91.9966 13.4728C91.689 13.4563 91.3821 13.5171 91.1046 13.6496C91.0068 13.687 90.9225 13.7526 90.8627 13.8378C90.8028 13.9231 90.7701 14.0242 90.7687 14.128C90.7755 14.2703 90.828 14.4066 90.9187 14.517C91.0093 14.6275 91.1333 14.7062 91.2725 14.7416C91.6755 14.8922 92.0945 14.9968 92.5214 15.0536C93.0122 15.1176 93.4992 15.2079 93.9801 15.324C94.4505 15.4295 94.8781 15.6722 95.208 16.0208C95.3845 16.2129 95.5208 16.4377 95.609 16.6822C95.6973 16.9268 95.7358 17.1863 95.7223 17.4456C95.7313 17.8051 95.6461 18.1608 95.4751 18.478C95.304 18.7952 95.0529 19.063 94.7462 19.2552C93.9621 19.7541 93.0433 20.0044 92.1121 19.9728Z" fill="#1D2130"/>
<path d="M106.815 19.4529C106.821 19.4898 106.82 19.5275 106.811 19.5638C106.802 19.6002 106.785 19.6343 106.763 19.6644C106.74 19.6944 106.712 19.7197 106.68 19.7387C106.647 19.7578 106.611 19.7702 106.574 19.7753C106.191 19.8992 105.791 19.9658 105.388 19.9729C104.989 20.0138 104.586 19.952 104.219 19.7935C103.851 19.635 103.531 19.3851 103.289 19.0681C102.548 19.6996 101.589 20.0237 100.613 19.9729C100.16 19.9935 99.7069 19.92 99.284 19.757C98.861 19.5941 98.4772 19.3452 98.1571 19.0264C97.8392 18.6925 97.5927 18.2983 97.4322 17.8676C97.2717 17.437 97.2005 16.9786 97.2231 16.52V12.4536C97.2231 12.256 97.3175 12.152 97.5169 12.152H99.28C99.4794 12.152 99.5739 12.256 99.5739 12.4536V16.208C99.5547 16.6758 99.7161 17.1332 100.025 17.4872C100.179 17.6494 100.367 17.777 100.575 17.8613C100.783 17.9456 101.007 17.9847 101.232 17.9761C101.462 17.986 101.692 17.9507 101.908 17.8722C102.124 17.7936 102.322 17.6734 102.491 17.5184C102.651 17.3551 102.776 17.161 102.857 16.9482C102.938 16.7353 102.975 16.5082 102.964 16.2808V12.4536C102.964 12.256 103.058 12.152 103.258 12.152H105.042C105.241 12.152 105.335 12.256 105.335 12.4536V17.352C105.335 17.7576 105.514 17.9552 105.86 17.9552C106.023 17.9615 106.186 17.944 106.343 17.9033C106.383 17.8922 106.424 17.8902 106.465 17.8975C106.505 17.9047 106.544 17.9209 106.577 17.9449C106.61 17.9689 106.638 18.0001 106.657 18.0361C106.677 18.0721 106.688 18.112 106.689 18.1528L106.815 19.4529Z" fill="#1D2130"/>
<path d="M123.491 19.4529C123.501 19.4901 123.502 19.529 123.494 19.5666C123.486 19.6042 123.47 19.6397 123.447 19.6705C123.424 19.7014 123.395 19.7267 123.36 19.7448C123.326 19.763 123.289 19.7734 123.25 19.7753C122.86 19.901 122.453 19.9676 122.043 19.9729C121.419 20.0048 120.802 19.8291 120.29 19.4737C120.069 19.3214 119.889 19.1175 119.767 18.8798C119.644 18.6422 119.582 18.3782 119.587 18.1113V15.6673C119.609 15.2009 119.452 14.7437 119.146 14.3881C118.999 14.2255 118.817 14.0974 118.614 14.0129C118.411 13.9283 118.191 13.8896 117.971 13.8993C117.773 13.8919 117.575 13.9292 117.393 14.0085C117.211 14.0877 117.05 14.2069 116.922 14.3569C116.645 14.7054 116.503 15.1409 116.523 15.5841V19.4217C116.523 19.6193 116.428 19.7233 116.229 19.7233H114.455C114.414 19.7284 114.372 19.724 114.333 19.7107C114.294 19.6973 114.258 19.6752 114.229 19.6461C114.199 19.6171 114.177 19.5817 114.164 19.5428C114.15 19.5039 114.146 19.4625 114.151 19.4217V15.6673C114.174 15.206 114.029 14.752 113.742 14.3881C113.614 14.2352 113.453 14.1122 113.272 14.0277C113.091 13.9432 112.893 13.8994 112.692 13.8993C112.478 13.8907 112.265 13.9271 112.066 14.0059C111.867 14.0848 111.687 14.2044 111.538 14.3569C111.238 14.6943 111.083 15.1349 111.107 15.5841V19.4217C111.113 19.4625 111.108 19.5039 111.095 19.5428C111.081 19.5817 111.059 19.6171 111.03 19.6461C111 19.6752 110.965 19.6973 110.925 19.7107C110.886 19.724 110.844 19.7284 110.803 19.7233H109.093C108.893 19.7233 108.799 19.6193 108.799 19.4217V14.5233C108.811 14.4399 108.804 14.3548 108.777 14.2747C108.75 14.1947 108.705 14.122 108.645 14.0624C108.584 14.0027 108.511 13.9579 108.43 13.9314C108.35 13.9049 108.264 13.8975 108.179 13.9097H107.833C107.602 13.9097 107.487 13.8265 107.487 13.6601V12.4329C107.481 12.357 107.502 12.2815 107.546 12.219C107.59 12.1566 107.654 12.1109 107.728 12.0897C108.091 11.9589 108.475 11.8955 108.862 11.9025C109.232 11.8712 109.604 11.9444 109.935 12.1137C110.266 12.283 110.541 12.5415 110.73 12.8593C111.084 12.5267 111.503 12.2701 111.962 12.1055C112.421 11.9409 112.909 11.8718 113.395 11.9025C113.868 11.8796 114.34 11.9675 114.772 12.159C115.204 12.3506 115.585 12.6404 115.883 13.0049C116.23 12.6308 116.657 12.3379 117.132 12.1472C117.608 11.9566 118.12 11.873 118.632 11.9025C119.09 11.8813 119.548 11.9544 119.976 12.1173C120.404 12.2802 120.793 12.5293 121.119 12.8489C121.438 13.1822 121.686 13.5762 121.846 14.0071C122.007 14.4379 122.077 14.8966 122.053 15.3553V17.3625C122.053 17.7577 122.232 17.9553 122.568 17.9553C122.73 17.9628 122.893 17.9453 123.05 17.9033C123.267 17.9033 123.383 17.9865 123.397 18.1529L123.491 19.4529Z" fill="#1D2130"/>
<path d="M0.430283 10.8001C1.20455 7.71617 2.99774 4.97758 5.52432 3.02041C8.0509 1.06323 11.1656 0 14.3725 0C17.5794 0 20.6941 1.06323 23.2207 3.02041C25.7473 4.97758 27.5405 7.71617 28.3147 10.8001H27.0554C24.9309 10.7691 22.85 11.3983 21.1049 12.5993C21.0042 12.6716 20.899 12.7376 20.79 12.7969H20.6431C20.5341 12.7376 20.429 12.6716 20.3283 12.5993C18.5677 11.4261 16.4942 10.7995 14.3725 10.7995C12.2509 10.7995 10.1774 11.4261 8.41676 12.5993C8.31604 12.6716 8.2109 12.7376 8.10192 12.7969H7.955C7.84602 12.7376 7.74087 12.6716 7.64015 12.5993C5.89502 11.3983 3.81411 10.7691 1.68965 10.8001H0.430283ZM24.7885 17.3209C25.435 16.822 26.2363 16.561 27.0554 16.5825H28.745V13.2441H27.0554C25.6126 13.2268 24.2028 13.6718 23.0359 14.5129C22.3792 14.9927 21.5849 15.2515 20.769 15.2515C19.9532 15.2515 19.1588 14.9927 18.5022 14.5129C17.3057 13.6875 15.8828 13.2451 14.425 13.2451C12.9671 13.2451 11.5443 13.6875 10.3478 14.5129C9.69114 14.9927 8.89675 15.2515 8.08093 15.2515C7.26511 15.2515 6.47073 14.9927 5.81407 14.5129C4.63279 13.6611 3.20277 13.2155 1.74212 13.2441H0V16.5825H1.68965C2.50877 16.561 3.31002 16.822 3.95651 17.3209C5.15081 18.1468 6.5721 18.5897 8.02846 18.5897C9.48482 18.5897 10.9061 18.1468 12.1004 17.3209C12.7477 16.8235 13.5484 16.5627 14.3673 16.5825C15.1866 16.5592 15.9885 16.8204 16.6341 17.3209C17.8306 18.1463 19.2535 18.5888 20.7113 18.5888C22.1692 18.5888 23.592 18.1463 24.7885 17.3209ZM24.7885 23.2905C25.435 22.7916 26.2363 22.5306 27.0554 22.5521H28.745V19.2137H27.0554C25.6126 19.1964 24.2028 19.6414 23.0359 20.4825C22.3792 20.9623 21.5849 21.2211 20.769 21.2211C19.9532 21.2211 19.1588 20.9623 18.5022 20.4825C17.3057 19.6571 15.8828 19.2147 14.425 19.2147C12.9671 19.2147 11.5443 19.6571 10.3478 20.4825C9.69114 20.9623 8.89675 21.2211 8.08093 21.2211C7.26511 21.2211 6.47073 20.9623 5.81407 20.4825C4.63279 19.6307 3.20277 19.1851 1.74212 19.2137H0V22.5521H1.68965C2.50877 22.5306 3.31002 22.7916 3.95651 23.2905C5.15081 24.1164 6.5721 24.5593 8.02846 24.5593C9.48482 24.5593 10.9061 24.1164 12.1004 23.2905C12.7477 22.7931 13.5484 22.5323 14.3673 22.5521C15.1866 22.5288 15.9885 22.79 16.6341 23.2905C17.8306 24.1159 19.2535 24.5584 20.7113 24.5584C22.1692 24.5584 23.592 24.1159 24.7885 23.2905Z" fill="#1D2130"/>
</g>
</svg>
