<svg width="104" height="24" viewBox="0 0 104 24" fill="none" xmlns="http://www.w3.org/2000/svg">
<g clip-path="url(#clip0_0_124)">
<path d="M29.4218 17.4H36.2334V15.4604H31.4989V6.40363H29.4218V17.4Z" fill="#8B888A"/>
<path d="M40.3268 17.6291C41.1516 17.6291 41.877 17.4458 42.5032 17.0793C43.1344 16.7076 43.6257 16.196 43.977 15.5444C44.3334 14.8876 44.5116 14.1316 44.5116 13.2764C44.5116 12.4262 44.3359 11.6753 43.9846 11.0236C43.6333 10.3669 43.1421 9.85275 42.5108 9.48111C41.8847 9.10947 41.1567 8.92365 40.3268 8.92365C39.5123 8.92365 38.7919 9.10694 38.1657 9.47348C37.5396 9.84002 37.0483 10.3516 36.6919 11.0084C36.3355 11.66 36.1573 12.416 36.1573 13.2764C36.1573 14.1265 36.3304 14.88 36.6766 15.5367C37.0279 16.1884 37.5166 16.7 38.1428 17.0716C38.769 17.4433 39.497 17.6291 40.3268 17.6291ZM40.3268 15.6895C39.6803 15.6895 39.189 15.4731 38.853 15.0404C38.5221 14.6026 38.3566 14.0146 38.3566 13.2764C38.3566 12.5586 38.5144 11.9782 38.8301 11.5353C39.1508 11.0873 39.6497 10.8633 40.3268 10.8633C40.9836 10.8633 41.4774 11.0822 41.8083 11.52C42.1443 11.9578 42.3123 12.5433 42.3123 13.2764C42.3123 13.984 42.1468 14.5644 41.8159 15.0175C41.4901 15.4654 40.9937 15.6895 40.3268 15.6895Z" fill="#8B888A"/>
<path d="M48.6191 17.6291C49.0061 17.6291 49.3624 17.5833 49.6883 17.4916C50.0192 17.4 50.3195 17.2702 50.5894 17.1022V17.9346C50.5996 18.24 50.5206 18.4945 50.3526 18.6982C50.1897 18.9069 49.9708 19.0622 49.6959 19.164C49.421 19.2709 49.1282 19.3244 48.8177 19.3244C48.5275 19.3244 48.2577 19.2607 48.0083 19.1335C47.7639 19.0062 47.5755 18.8204 47.4431 18.576L45.5188 19.5076C45.8344 20.0422 46.285 20.4724 46.8704 20.7982C47.4559 21.1291 48.0999 21.2946 48.8024 21.2946C49.4083 21.2946 49.9708 21.2131 50.4901 21.0502C51.0094 20.8924 51.4472 20.6506 51.8035 20.3247C52.165 19.9989 52.4119 19.584 52.5443 19.08C52.5901 18.9018 52.6206 18.7211 52.6359 18.5378C52.6562 18.3597 52.6664 18.1687 52.6664 17.9651V9.15273H50.849V9.61095C50.569 9.39201 50.2508 9.22401 49.8944 9.10695C49.5431 8.98473 49.1537 8.92365 48.7261 8.92365C47.937 8.92365 47.2497 9.11205 46.6643 9.48873C46.0788 9.86547 45.6232 10.3822 45.2974 11.0389C44.9766 11.6905 44.8163 12.4364 44.8163 13.2764C44.8163 14.1011 44.9741 14.8418 45.2897 15.4986C45.6104 16.1553 46.0559 16.6746 46.6261 17.0564C47.1962 17.4382 47.8606 17.6291 48.6191 17.6291ZM48.9551 15.7811C48.5072 15.7811 48.1406 15.6691 47.8555 15.4451C47.5705 15.2211 47.3591 14.9208 47.2217 14.544C47.0843 14.1622 47.0155 13.7397 47.0155 13.2764C47.0155 12.8182 47.0868 12.4008 47.2294 12.024C47.3719 11.6422 47.5908 11.3393 47.8861 11.1153C48.1864 10.8862 48.5683 10.7716 49.0315 10.7716C49.6832 10.7716 50.149 11.0033 50.429 11.4666C50.709 11.9247 50.849 12.528 50.849 13.2764C50.849 14.0247 50.7064 14.6305 50.4214 15.0938C50.1413 15.552 49.6526 15.7811 48.9551 15.7811Z" fill="#8B888A"/>
<path d="M57.5999 17.6291C58.4246 17.6291 59.1501 17.4458 59.7763 17.0793C60.4074 16.7076 60.8988 16.196 61.2498 15.5444C61.6062 14.8876 61.7844 14.1316 61.7844 13.2764C61.7844 12.4262 61.6092 11.6753 61.2576 11.0236C60.9066 10.3669 60.4152 9.85275 59.7839 9.48111C59.1577 9.10947 58.4297 8.92365 57.5999 8.92365C56.7853 8.92365 56.065 9.10694 55.4388 9.47348C54.8126 9.84002 54.3214 10.3516 53.965 11.0084C53.6086 11.66 53.4304 12.416 53.4304 13.2764C53.4304 14.1265 53.6035 14.88 53.9497 15.5367C54.301 16.1884 54.7897 16.7 55.4159 17.0716C56.0421 17.4433 56.7701 17.6291 57.5999 17.6291ZM57.5999 15.6895C56.9533 15.6895 56.462 15.4731 56.126 15.0404C55.7951 14.6026 55.6297 14.0146 55.6297 13.2764C55.6297 12.5586 55.7875 11.9782 56.1032 11.5353C56.4239 11.0873 56.9228 10.8633 57.5999 10.8633C58.2566 10.8633 58.7504 11.0822 59.0813 11.52C59.4173 11.9578 59.5853 12.5433 59.5853 13.2764C59.5853 13.984 59.4199 14.5644 59.089 15.0175C58.7632 15.4654 58.2668 15.6895 57.5999 15.6895Z" fill="#8B888A"/>
<path d="M62.7 8.00726H64.7772V6.17456H62.7V8.00726ZM62.7 17.4H64.7772V9.15272H62.7V17.4Z" fill="#8B888A"/>
<path d="M66.135 21.0655H68.2272V17.1022C68.4972 17.2702 68.7948 17.4 69.1206 17.4916C69.4518 17.5833 69.8106 17.6291 70.1976 17.6291C70.956 17.6291 71.6208 17.4382 72.1908 17.0564C72.7608 16.6746 73.2036 16.1553 73.5192 15.4986C73.8402 14.8418 74.0004 14.1011 74.0004 13.2764C74.0004 12.4364 73.8378 11.6905 73.512 11.0389C73.191 10.3822 72.738 9.86547 72.1524 9.48873C71.5668 9.11205 70.8798 8.92365 70.0908 8.92365C69.663 8.92365 69.2712 8.98473 68.9148 9.10695C68.5632 9.22401 68.2476 9.39201 67.968 9.61095V9.15273H66.135V21.0655ZM69.8616 15.7811C69.1692 15.7811 68.6808 15.552 68.3952 15.0938C68.1102 14.6305 67.968 14.0247 67.968 13.2764C67.968 12.528 68.1078 11.9247 68.388 11.4666C68.673 11.0033 69.1386 10.7716 69.7854 10.7716C70.2486 10.7716 70.6278 10.8862 70.923 11.1153C71.2236 11.3393 71.445 11.6422 71.5872 12.024C71.73 12.4008 71.8014 12.8182 71.8014 13.2764C71.8014 13.7397 71.7324 14.1622 71.595 14.544C71.4576 14.9208 71.2464 15.2211 70.9614 15.4451C70.6764 15.6691 70.3098 15.7811 69.8616 15.7811Z" fill="#8B888A"/>
<path d="M77.7636 17.6291C78.8424 17.6291 79.6878 17.3873 80.2986 16.9036C80.9094 16.42 81.2148 15.7557 81.2148 14.9106C81.2148 14.2691 81.0162 13.7626 80.6196 13.3909C80.2272 13.0193 79.5606 12.7113 78.6186 12.4669C77.9772 12.304 77.4984 12.1716 77.1828 12.0698C76.8726 11.968 76.6662 11.8687 76.5642 11.772C76.4676 11.6753 76.4196 11.5557 76.4196 11.4131C76.4196 11.1738 76.5336 10.9906 76.7628 10.8633C76.9974 10.736 77.3052 10.6851 77.6868 10.7106C78.4962 10.7716 78.9396 11.1178 79.0158 11.7491L81.1386 11.3673C81.0318 10.6189 80.6652 10.0258 80.0388 9.58802C79.413 9.1451 78.6138 8.92365 77.6412 8.92365C76.6434 8.92365 75.8466 9.15783 75.2508 9.62619C74.6556 10.0945 74.3574 10.7258 74.3574 11.52C74.3574 12.1513 74.5638 12.6502 74.976 13.0167C75.3882 13.3782 76.0986 13.6887 77.1066 13.9484C77.7024 14.1062 78.1398 14.2335 78.42 14.3302C78.705 14.4269 78.8886 14.5262 78.9696 14.628C79.0512 14.7247 79.092 14.8546 79.092 15.0175C79.092 15.2771 78.99 15.4807 78.7866 15.6284C78.5832 15.7709 78.2928 15.8422 77.916 15.8422C77.4576 15.8422 77.0784 15.7327 76.7784 15.5138C76.4832 15.2949 76.2918 14.992 76.2054 14.6051L74.0826 14.9258C74.22 15.7862 74.607 16.4531 75.2436 16.9266C75.885 17.3949 76.725 17.6291 77.7636 17.6291Z" fill="#8B888A"/>
<path d="M85.0464 17.6444C85.6422 17.6444 86.1612 17.5451 86.6046 17.3465C87.0474 17.148 87.4188 16.8833 87.7194 16.5524V17.4H89.5518V9.15271H87.4596V13.3375C87.4596 13.8466 87.4008 14.2589 87.2838 14.5745C87.1722 14.8851 87.027 15.1218 86.8488 15.2847C86.6706 15.4426 86.4798 15.5494 86.2758 15.6055C86.0724 15.6614 85.8816 15.6895 85.7034 15.6895C85.2606 15.6895 84.9168 15.5902 84.6726 15.3916C84.4332 15.1931 84.2598 14.9462 84.153 14.6509C84.0462 14.3556 83.9826 14.0629 83.9622 13.7727C83.9418 13.4774 83.9316 13.2356 83.9316 13.0472V9.15271H81.8238V13.7804C81.8238 13.9178 81.834 14.1367 81.8544 14.4371C81.8748 14.7374 81.9336 15.0709 82.0302 15.4375C82.1268 15.7989 82.287 16.1476 82.5114 16.4836C82.7406 16.8196 83.0586 17.0971 83.466 17.316C83.8728 17.5349 84.4002 17.6444 85.0464 17.6444Z" fill="#8B888A"/>
<path d="M90.7548 17.4H92.847V12.4058C92.847 11.9324 92.9766 11.548 93.2364 11.2527C93.501 10.9523 93.8496 10.8022 94.2828 10.8022C94.7358 10.8022 95.0898 10.9549 95.3442 11.2604C95.6034 11.5607 95.7336 11.9833 95.7336 12.528V17.4H97.8108V12.4058C97.8108 11.9324 97.9404 11.548 98.2002 11.2527C98.4648 10.9523 98.8134 10.8022 99.246 10.8022C99.6996 10.8022 100.053 10.9549 100.307 11.2604C100.567 11.5607 100.697 11.9833 100.697 12.528V17.4H102.774V11.9782C102.774 11.0771 102.532 10.3491 102.049 9.79416C101.57 9.23418 100.86 8.95416 99.918 8.95416C99.3888 8.95416 98.9028 9.0687 98.4594 9.29778C98.0166 9.52692 97.6632 9.84 97.398 10.2371C97.1844 9.8502 96.879 9.53964 96.4818 9.30546C96.0846 9.07128 95.5908 8.95416 95.0004 8.95416C94.5012 8.95416 94.0434 9.05346 93.6258 9.252C93.2082 9.44544 92.862 9.71274 92.5872 10.0538V9.1527H90.7548V17.4Z" fill="#8B888A"/>
<path d="M12 0C5.37258 0 0 5.37258 0 12C6.62742 12 12 6.62742 12 0Z" fill="#8B888A"/>
<path d="M12 24C18.6274 24 24 18.6274 24 12C17.3726 12 12 17.3726 12 24Z" fill="#8B888A"/>
<path d="M12 0C18.6274 0 24 5.37258 24 12C17.3726 12 12 6.62742 12 0Z" fill="#8B888A"/>
<path d="M12 24C5.37258 24 -5.79387e-07 18.6274 0 12C6.62742 12 12 17.3726 12 24Z" fill="#8B888A"/>
</g>
<defs>
<clipPath id="clip0_0_124">
<rect width="103.2" height="24" fill="white"/>
</clipPath>
</defs>
</svg>
