<svg width="137" height="31" viewBox="0 0 137 31" fill="none" xmlns="http://www.w3.org/2000/svg">
<g opacity="0.6">
<path d="M32.9934 7.26099H36.1587V22.578H32.9934V7.26099Z" fill="#1D2130"/>
<path d="M37.9313 17.331C37.9314 16.229 38.257 15.1518 38.8671 14.2359C39.4772 13.3201 40.3442 12.6069 41.3582 12.1866C42.3723 11.7664 43.4877 11.658 44.5631 11.8753C45.6384 12.0927 46.6254 12.6258 47.3988 13.4073C48.1722 14.1888 48.6973 15.1833 48.9074 16.2649C49.1176 17.3465 49.0034 18.4664 48.5792 19.4827C48.1551 20.499 47.4402 21.366 46.5251 21.9736C45.61 22.5812 44.5359 22.9023 43.439 22.896C42.7115 22.9017 41.9901 22.7614 41.3173 22.4834C40.6444 22.2053 40.0336 21.7951 39.5206 21.2768C39.0076 20.7585 38.6028 20.1425 38.3299 19.4649C38.057 18.7873 37.9215 18.0618 37.9313 17.331ZM45.8658 17.331C45.8533 16.8559 45.7017 16.395 45.43 16.006C45.1582 15.6171 44.7783 15.3172 44.3377 15.144C43.8972 14.9708 43.4156 14.9319 42.9532 15.0322C42.4908 15.1325 42.0681 15.3676 41.738 15.708C41.4078 16.0484 41.1849 16.479 41.0971 16.946C41.0093 17.413 41.0605 17.8956 41.2443 18.3335C41.4281 18.7715 41.7363 19.1452 42.1304 19.4081C42.5246 19.6709 42.9871 19.8112 43.4601 19.8114C43.7822 19.8177 44.1021 19.7572 44.3999 19.6336C44.6976 19.5101 44.9668 19.3262 45.1906 19.0934C45.4144 18.8606 45.588 18.5839 45.7006 18.2807C45.8131 17.9774 45.8622 17.6541 45.8447 17.331H45.8658Z" fill="#1D2130"/>
<path d="M61.471 12.084V22.0586C61.471 25.5778 58.7277 27.0724 55.9527 27.0724C54.9739 27.1531 53.9921 26.9577 53.1179 26.5083C52.2436 26.0588 51.5116 25.3731 51.0042 24.5284L53.6737 22.9808C53.89 23.4189 54.2341 23.7804 54.6601 24.0172C55.0861 24.2539 55.5738 24.3546 56.0582 24.3058C56.3668 24.344 56.68 24.3132 56.9754 24.2156C57.2707 24.1181 57.541 23.9561 57.7668 23.7414C57.9926 23.5267 58.1684 23.2645 58.2816 22.9736C58.3948 22.6827 58.4427 22.3702 58.4217 22.0586V21.094C58.0533 21.5426 57.586 21.8989 57.0566 22.1344C56.5273 22.3699 55.9507 22.4782 55.3724 22.4508C53.9732 22.4508 52.6314 21.8924 51.642 20.8984C50.6527 19.9045 50.0968 18.5564 50.0968 17.1508C50.0968 15.7451 50.6527 14.3971 51.642 13.4031C52.6314 12.4092 53.9732 11.8508 55.3724 11.8508C55.9507 11.8233 56.5273 11.9316 57.0566 12.1672C57.586 12.4027 58.0533 12.7589 58.4217 13.2076V12.1476L61.471 12.084ZM58.4217 17.119C58.4427 16.6118 58.3123 16.11 58.0471 15.6779C57.782 15.2458 57.3943 14.9033 56.9338 14.6944C56.4733 14.4855 55.9612 14.4198 55.4633 14.5056C54.9653 14.5915 54.5043 14.825 54.1395 15.1762C53.7747 15.5274 53.5229 15.9802 53.4163 16.4764C53.3097 16.9725 53.3533 17.4894 53.5415 17.9604C53.7297 18.4315 54.0538 18.8353 54.4722 19.1198C54.8906 19.4043 55.3842 19.5565 55.8894 19.557C56.2191 19.5808 56.5501 19.535 56.861 19.4223C57.1719 19.3097 57.4559 19.1328 57.6945 18.903C57.9332 18.6732 58.1212 18.3958 58.2464 18.0885C58.3717 17.7812 58.4314 17.4509 58.4217 17.119Z" fill="#1D2130"/>
<path d="M63.2541 17.331C63.2541 16.2299 63.5792 15.1535 64.1883 14.2381C64.7975 13.3227 65.6632 12.6095 66.676 12.1886C67.6888 11.7677 68.8032 11.6581 69.878 11.8737C70.9528 12.0893 71.9398 12.6203 72.7141 13.3997C73.4883 14.179 74.0151 15.1716 74.2276 16.2518C74.4401 17.332 74.3289 18.4513 73.9081 19.468C73.4872 20.4846 72.7756 21.353 71.8632 21.9633C70.9509 22.5735 69.8789 22.8981 68.7829 22.896C68.0539 22.9031 67.331 22.7639 66.6563 22.4866C65.9816 22.2093 65.3688 21.7995 64.8539 21.2812C64.339 20.7629 63.9322 20.1465 63.6575 19.4682C63.3828 18.7898 63.2456 18.0632 63.2541 17.331ZM71.1885 17.331C71.176 16.8554 71.0242 16.3942 70.7519 16.005C70.4797 15.6158 70.0991 15.3159 69.658 15.143C69.2168 14.9702 68.7347 14.9319 68.272 15.0331C67.8094 15.1343 67.3867 15.3704 67.057 15.7118C66.7273 16.0532 66.5052 16.4848 66.4186 16.9525C66.332 17.4202 66.3847 17.9032 66.5701 18.3409C66.7555 18.7786 67.0654 19.1516 67.4609 19.4132C67.8564 19.6748 68.3199 19.8133 68.7934 19.8114C69.1155 19.8177 69.4354 19.7572 69.7332 19.6336C70.0309 19.5101 70.3001 19.3262 70.5239 19.0934C70.7477 18.8606 70.9213 18.5839 71.0338 18.2807C71.1464 17.9774 71.1954 17.6541 71.178 17.331H71.1885Z" fill="#1D2130"/>
<path d="M75.7783 9.27493C75.7783 8.90176 75.8885 8.53696 76.0948 8.22668C76.3012 7.9164 76.5945 7.67456 76.9377 7.53175C77.2809 7.38895 77.6585 7.35158 78.0228 7.42439C78.3871 7.49719 78.7218 7.67689 78.9844 7.94076C79.2471 8.20464 79.426 8.54083 79.4984 8.90683C79.5709 9.27284 79.5337 9.65221 79.3916 9.99698C79.2494 10.3417 79.0087 10.6364 78.6998 10.8438C78.391 11.0511 78.0279 11.1617 77.6564 11.1617C77.16 11.1562 76.6855 10.9557 76.3345 10.603C75.9834 10.2504 75.7838 9.77363 75.7783 9.27493ZM76.0843 12.0839H79.2496V22.5779H76.0843V12.0839Z" fill="#1D2130"/>
<path d="M92.7973 17.331C92.8327 18.0289 92.7305 18.727 92.4964 19.385C92.2623 20.0431 91.9009 20.6481 91.4332 21.1654C90.9654 21.6826 90.4004 22.1018 89.7708 22.3988C89.1412 22.6958 88.4593 22.8648 87.7644 22.896C87.1747 22.9354 86.5837 22.8405 86.0357 22.6185C85.4876 22.3964 84.9965 22.0528 84.599 21.6134V26.7968H81.4337V12.084H84.599V13.0698C84.997 12.6317 85.4884 12.2897 86.0366 12.0694C86.5848 11.8492 87.1754 11.7563 87.7644 11.7978C88.4565 11.8291 89.1357 11.9971 89.7632 12.2921C90.3907 12.5871 90.9542 13.0034 91.4215 13.5172C91.8889 14.031 92.2509 14.6323 92.4869 15.2867C92.723 15.941 92.8284 16.6357 92.7973 17.331ZM89.6319 17.331C89.6194 16.8387 89.4626 16.361 89.1811 15.9579C88.8995 15.5547 88.5058 15.244 88.0492 15.0647C87.5927 14.8854 87.0936 14.8455 86.6145 14.9499C86.1355 15.0544 85.6978 15.2986 85.3563 15.6519C85.0148 16.0052 84.7846 16.4519 84.6948 16.936C84.6049 17.4202 84.6593 17.9202 84.8511 18.3734C85.0429 18.8266 85.3636 19.2129 85.7729 19.4838C86.1823 19.7547 86.6622 19.8981 87.1524 19.8962C87.4882 19.9105 87.8232 19.8534 88.1354 19.7285C88.4476 19.6036 88.7301 19.4139 88.9642 19.1717C89.1983 18.9295 89.3788 18.6403 89.4939 18.323C89.609 18.0058 89.656 17.6678 89.6319 17.331Z" fill="#1D2130"/>
<path d="M102.43 19.4298C102.43 21.8466 100.32 22.8748 98.0834 22.8748C97.171 22.9573 96.2551 22.763 95.4538 22.317C94.6525 21.8711 94.0028 21.194 93.5886 20.3732L96.3108 18.8256C96.4186 19.2038 96.6525 19.5334 96.9732 19.7591C97.294 19.9849 97.6821 20.0931 98.0728 20.0658C98.8219 20.0658 99.2018 19.8326 99.2018 19.4086C99.2018 18.2532 94.0634 18.868 94.0634 15.2322C94.0634 12.9426 95.9837 11.7978 98.1572 11.7978C98.9834 11.7606 99.8042 11.9489 100.532 12.3427C101.261 12.7365 101.869 13.3211 102.293 14.0344L99.5711 15.476C99.4508 15.2025 99.2543 14.9699 99.0053 14.8062C98.7562 14.6426 98.4654 14.5549 98.1678 14.5538C97.6191 14.5538 97.292 14.7658 97.292 15.1368C97.292 16.3452 102.43 15.5502 102.43 19.4298Z" fill="#1D2130"/>
<path d="M113.899 12.084V22.578H110.734V21.5922C110.375 22.0286 109.918 22.3739 109.401 22.6004C108.884 22.8269 108.322 22.9281 107.759 22.896C105.648 22.896 103.844 21.3802 103.844 18.55V12.084H107.01V18.073C106.985 18.3234 107.014 18.5762 107.096 18.814C107.178 19.0518 107.31 19.2689 107.484 19.4504C107.657 19.6318 107.868 19.7732 108.101 19.8648C108.335 19.9564 108.585 19.9961 108.835 19.981C109.974 19.981 110.776 19.3026 110.776 17.861V12.084H113.899Z" fill="#1D2130"/>
<path d="M131.836 16.1332V22.578H128.671V16.4088C128.671 15.3488 128.175 14.6916 127.173 14.6916C126.17 14.6916 125.537 15.423 125.537 16.6632V22.578H122.372V16.4088C122.372 15.3488 121.876 14.6916 120.874 14.6916C119.871 14.6916 119.238 15.423 119.238 16.6632V22.578H116.073V12.084H119.238V13.0486C119.566 12.6224 119.994 12.2849 120.484 12.0665C120.974 11.8482 121.511 11.7558 122.045 11.7978C122.58 11.7697 123.114 11.882 123.593 12.1236C124.072 12.3652 124.48 12.7278 124.778 13.1758C125.125 12.7077 125.585 12.3358 126.115 12.0948C126.645 11.8539 127.226 11.7516 127.806 11.7978C130.275 11.7978 131.836 13.515 131.836 16.1332Z" fill="#1D2130"/>
<path d="M14.1385 4.505V0H0V30.952H14.1385V26.447C11.2422 26.447 8.46459 25.2911 6.41662 23.2337C4.36864 21.1762 3.2181 18.3857 3.2181 15.476C3.2181 12.5663 4.36864 9.77579 6.41662 7.71833C8.46459 5.66087 11.2422 4.505 14.1385 4.505Z" fill="#1D2130"/>
<path d="M14.1385 4.505V26.447C17.0348 26.447 19.8124 25.2911 21.8604 23.2337C23.9083 21.1762 25.0589 18.3857 25.0589 15.476C25.0589 12.5663 23.9083 9.77579 21.8604 7.71833C19.8124 5.66087 17.0348 4.505 14.1385 4.505Z" fill="#1D2130"/>
<path d="M134.495 12.0204C135.777 12.0204 136.817 10.9763 136.817 9.68837C136.817 8.40044 135.777 7.35637 134.495 7.35637C133.213 7.35637 132.174 8.40044 132.174 9.68837C132.174 10.9763 133.213 12.0204 134.495 12.0204Z" fill="#1D2130"/>
</g>
</svg>
