<svg width="134" height="32" viewBox="0 0 134 32" fill="none" xmlns="http://www.w3.org/2000/svg">
<g opacity="0.6">
<path d="M37.9737 9.48191H41.3606V23.1319H37.9737V9.48191ZM42.7111 17.9974C42.7111 14.6164 44.8213 12.5899 47.9867 12.5899C51.152 12.5899 53.2623 14.6164 53.2623 17.9974C53.2623 21.3784 51.2259 23.4259 47.9867 23.4259C44.7475 23.4259 42.7111 21.4519 42.7111 17.9974ZM49.907 17.9974C49.907 16.1389 49.179 15.0469 48.0183 15.0469C46.8577 15.0469 46.1402 16.0969 46.1402 17.9974C46.1402 19.8979 46.8577 20.9374 48.0183 20.9374C49.179 20.9374 49.9281 19.8979 49.9281 18.0079L49.907 17.9974ZM54.6128 23.8354H57.8837C58.0326 24.1858 58.2926 24.4782 58.6241 24.6678C58.9556 24.8573 59.3403 24.9338 59.7196 24.8854C61.0173 24.8854 61.6926 24.1924 61.6926 23.1634V21.2734H61.7032C61.4237 21.8619 60.9717 22.3524 60.4067 22.6804C59.8417 23.0084 59.1902 23.1585 58.5378 23.1109C56.0583 23.1109 54.4123 21.2314 54.4123 17.9974C54.4123 14.7634 55.9844 12.7474 58.6328 12.7474C59.3018 12.7118 59.9655 12.8835 60.5324 13.2389C61.0993 13.5943 61.5415 14.116 61.7981 14.7319H61.7032V12.8314H65.0584V23.0584C65.0584 25.5259 62.8638 27.0694 59.6351 27.0694C56.7019 27.0589 54.8238 25.7254 54.6339 23.8459L54.6128 23.8354ZM61.7032 17.9974C61.7032 16.3489 60.9435 15.3094 59.7407 15.3094C58.5378 15.3094 57.7993 16.3594 57.7993 17.9974C57.7993 19.6354 58.5273 20.6014 59.7407 20.6014C60.954 20.6014 61.7032 19.7089 61.7032 17.9974ZM66.3984 17.9974C66.3984 14.6164 68.5087 12.5899 71.674 12.5899C74.8393 12.5899 76.9496 14.6164 76.9496 17.9974C76.9496 21.3784 74.9026 23.4259 71.674 23.4259C68.4453 23.4259 66.4195 21.4519 66.4195 17.9974H66.3984ZM73.5943 17.9974C73.5943 16.1389 72.8557 15.0469 71.7057 15.0469C70.5556 15.0469 69.8275 16.0969 69.8275 17.9974C69.8275 19.8979 70.545 20.9374 71.7057 20.9374C72.8663 20.9374 73.6154 19.8979 73.6154 18.0079L73.5943 17.9974ZM78.3212 10.3429C78.3065 9.99958 78.3953 9.65972 78.5763 9.36703C78.7572 9.07435 79.022 8.84224 79.3366 8.70057C79.6512 8.55889 80.0012 8.51413 80.3416 8.57204C80.682 8.62995 80.9972 8.78788 81.2466 9.02552C81.4961 9.26316 81.6684 9.56963 81.7413 9.90551C81.8143 10.2414 81.7846 10.5913 81.6561 10.9103C81.5276 11.2292 81.3061 11.5026 81.0202 11.6953C80.7342 11.888 80.3969 11.9911 80.0516 11.9914C79.8309 11.997 79.6113 11.9589 79.4055 11.8793C79.1998 11.7998 79.0119 11.6803 78.8529 11.528C78.6939 11.3756 78.5669 11.1933 78.4792 10.9917C78.3916 10.79 78.345 10.5731 78.3423 10.3534L78.3212 10.3429ZM78.3212 12.8209H81.7503V23.1739H78.374L78.3212 12.8209ZM94.0846 17.9974C94.0846 21.3679 92.5653 23.3209 89.9802 23.3209C89.3184 23.3615 88.66 23.1991 88.094 22.8554C87.5279 22.5118 87.0815 22.0036 86.8149 21.3994H86.7516V26.5024H83.3647V12.8524H86.7305V14.7004H86.7938C87.0512 14.0843 87.4933 13.5622 88.0597 13.2052C88.6262 12.8482 89.2894 12.6737 89.9591 12.7054C92.618 12.6844 94.1479 14.6269 94.1479 18.0079L94.0846 17.9974ZM90.6344 17.9974C90.6344 16.3594 89.8642 15.2989 88.6719 15.2989C87.4796 15.2989 86.7305 16.3489 86.7199 17.9974C86.7094 19.6459 87.4796 20.6854 88.6719 20.6854C89.8642 20.6854 90.6977 19.7089 90.6977 18.0079L90.6344 17.9974ZM99.8666 12.5794C102.705 12.5794 104.467 13.9129 104.488 16.0549H101.397C101.397 15.3094 100.774 14.8474 99.8455 14.8474C98.917 14.8474 98.4739 15.2044 98.4739 15.7399C98.4739 16.2754 98.8643 16.4434 99.6451 16.6009L101.819 17.0419C103.929 17.4829 104.773 18.3229 104.773 19.8874C104.773 21.9874 102.821 23.4154 99.9194 23.4154C97.0178 23.4154 95.1292 22.0294 94.992 19.9189H98.2734C98.3684 20.6854 98.9803 21.1369 99.9722 21.1369C100.964 21.1369 101.428 20.8219 101.428 20.2654C101.428 19.7089 101.112 19.6144 100.299 19.4464L98.3367 19.0369C96.3004 18.6064 95.2347 17.5459 95.2347 15.9604C95.298 13.9024 97.0706 12.5899 99.93 12.5899L99.8666 12.5794ZM116.115 23.1634H112.834V21.2209H112.771C112.587 21.8688 112.187 22.4351 111.636 22.8264C111.086 23.2177 110.418 23.4106 109.743 23.3734C109.233 23.3899 108.725 23.299 108.253 23.1064C107.781 22.9139 107.355 22.6242 107.003 22.2564C106.651 21.8885 106.382 21.4508 106.212 20.972C106.042 20.4931 105.976 19.984 106.018 19.4779V12.8314H109.405V18.7534C109.405 19.9714 110.049 20.6329 111.104 20.6329C111.351 20.6311 111.595 20.5764 111.82 20.4725C112.044 20.3687 112.244 20.2182 112.405 20.031C112.566 19.8439 112.685 19.6246 112.753 19.3879C112.822 19.1512 112.839 18.9026 112.802 18.6589V12.8314H116.179L116.115 23.1634ZM117.751 12.8209H121.043V14.8159H121.117C121.299 14.1768 121.688 13.6158 122.225 13.2206C122.761 12.8254 123.414 12.6184 124.082 12.6319C124.751 12.5739 125.419 12.7667 125.954 13.1726C126.488 13.5784 126.852 14.1681 126.973 14.8264H127.12C127.331 14.1646 127.756 13.5907 128.328 13.1938C128.901 12.797 129.589 12.5994 130.286 12.6319C130.749 12.6144 131.21 12.6944 131.64 12.8666C132.07 13.0389 132.459 13.2996 132.781 13.6317C133.102 13.9637 133.35 14.3596 133.507 14.7935C133.665 15.2274 133.728 15.6894 133.694 16.1494V23.1739H130.286V17.0104C130.286 15.9604 129.79 15.3724 128.83 15.3724C128.617 15.3689 128.405 15.4113 128.21 15.4967C128.015 15.582 127.841 15.7083 127.7 15.8669C127.559 16.0255 127.454 16.2126 127.392 16.4154C127.33 16.6182 127.313 16.8319 127.342 17.0419V23.1739H124.113V16.9789C124.113 15.9289 123.596 15.3724 122.668 15.3724C122.452 15.3707 122.239 15.4148 122.043 15.5018C121.846 15.5888 121.67 15.7166 121.528 15.8768C121.385 16.0369 121.278 16.2255 121.214 16.4301C121.151 16.6347 121.132 16.8505 121.159 17.0629V23.1739H117.772L117.751 12.8209Z" fill="#1D2130"/>
<path d="M31.2736 10.3745C31.2737 8.28468 30.6395 6.24355 29.4542 4.51846C28.2689 2.79337 26.5876 1.46476 24.6307 0.706655C22.6737 -0.0514509 20.5323 -0.203703 18.4869 0.269839C16.4415 0.74338 14.5876 1.82064 13.1678 3.36051H0V31.0175H27.8022V18.092C28.8935 17.1207 29.7666 15.9314 30.3648 14.6016C30.9629 13.2718 31.2726 11.8314 31.2736 10.3745ZM25.9241 10.3745C25.9262 11.3759 25.6297 12.3554 25.0722 13.1891C24.5147 14.0228 23.7211 14.6731 22.792 15.0577C21.8629 15.4424 20.84 15.5441 19.8528 15.35C18.8656 15.1559 17.9584 14.6748 17.2461 13.9674C16.5339 13.26 16.0484 12.3582 15.8514 11.3762C15.6543 10.3942 15.7544 9.37607 16.139 8.45068C16.5236 7.52529 17.1754 6.73425 18.012 6.17767C18.8485 5.62109 19.8322 5.32401 20.8385 5.324C22.1855 5.324 23.4774 5.85577 24.4309 6.80262C25.3843 7.74947 25.9214 9.03407 25.9241 10.3745ZM22.4528 25.694H5.34943V8.68401H10.5617C10.461 9.24204 10.4081 9.80757 10.4034 10.3745C10.4062 13.1278 11.5065 15.7675 13.4629 17.7144C15.4192 19.6613 18.0718 20.7562 20.8385 20.759C21.3794 20.7562 21.9192 20.7105 22.4528 20.6225V25.694Z" fill="#1D2130"/>
</g>
</svg>
