<svg width="48" height="42" viewBox="0 0 48 42" fill="none" xmlns="http://www.w3.org/2000/svg">
<path d="M32.4145 1C29.0582 1 25.9833 2.20178 23.5938 4.19687C21.2042 2.20178 18.1293 1 14.773 1C7.16631 1 1 7.16641 1 14.7731C1 18.0198 2.20394 20.9422 4.00281 23.3587C7.41241 27.939 23.5938 39.8597 23.5938 39.8597C23.5938 39.8597 39.7751 27.939 43.1847 23.3586C44.9836 20.9421 46.1875 18.0197 46.1875 14.773C46.1875 7.16641 40.0212 1 32.4145 1Z" stroke="#FD7E14" stroke-width="2" stroke-miterlimit="10"/>
<path d="M13.4669 19.4069C16.564 19.4069 19.0747 16.8962 19.0747 13.7992C19.0747 10.7021 16.564 8.19141 13.4669 8.19141C10.3699 8.19141 7.85919 10.7021 7.85919 13.7992C7.85919 16.8962 10.3699 19.4069 13.4669 19.4069Z" stroke="#FD7E14" stroke-width="2" stroke-miterlimit="10"/>
<path d="M20.4141 25.0973C19.7669 21.8519 16.9025 19.4062 13.4669 19.4062C9.55447 19.4062 6.38281 22.5779 6.38281 26.4904" stroke="#FD7E14" stroke-width="2" stroke-miterlimit="10"/>
<path d="M33.7171 19.4069C36.8142 19.4069 39.3249 16.8962 39.3249 13.7992C39.3249 10.7021 36.8142 8.19141 33.7171 8.19141C30.62 8.19141 28.1094 10.7021 28.1094 13.7992C28.1094 16.8962 30.62 19.4069 33.7171 19.4069Z" stroke="#FD7E14" stroke-width="2" stroke-miterlimit="10"/>
<path d="M26.7734 25.0973C27.4206 21.852 30.285 19.4062 33.7206 19.4062C37.6331 19.4062 40.8047 22.5779 40.8047 26.4904" stroke="#FD7E14" stroke-width="2" stroke-miterlimit="10"/>
<path d="M23.5919 24.3444C26.689 24.3444 29.1996 21.8337 29.1996 18.7367C29.1996 15.6396 26.689 13.1289 23.5919 13.1289C20.4948 13.1289 17.9841 15.6396 17.9841 18.7367C17.9841 21.8337 20.4948 24.3444 23.5919 24.3444Z" stroke="#FD7E14" stroke-width="2" stroke-miterlimit="10"/>
<path d="M30.6761 34.5065V31.4279C30.6761 27.5154 27.5044 24.3438 23.5919 24.3438C19.6795 24.3438 16.5078 27.5154 16.5078 31.4279V34.5065" stroke="#FD7E14" stroke-width="2" stroke-miterlimit="10"/>
</svg>
